<svg width="792" height="136" viewBox="0 0 792 136" fill="none" xmlns="http://www.w3.org/2000/svg">
<path d="M79.874 77.0005H27.8428V112.23H88.9072V134H0.743164V2.47656H88.7266V24.4272H27.8428V55.7725H79.874V77.0005ZM104.806 134V2.47656H145.274C156.837 2.47656 167.165 5.09619 176.258 10.3354C185.412 15.5145 192.548 22.9217 197.667 32.5571C202.786 42.1323 205.345 53.0324 205.345 65.2573V71.3096C205.345 83.5345 202.816 94.4045 197.757 103.919C192.759 113.434 185.683 120.812 176.529 126.051C167.376 131.29 157.048 133.94 145.545 134H104.806ZM131.905 24.4272V112.23H145.003C155.602 112.23 163.702 108.767 169.303 101.842C174.903 94.9163 177.764 85.0099 177.884 72.1226V65.167C177.884 51.7979 175.114 41.6807 169.574 34.8154C164.033 27.89 155.934 24.4272 145.274 24.4272H131.905ZM324.674 2.47656V89.105C324.674 103.498 320.157 114.88 311.124 123.25C302.151 131.621 289.866 135.807 274.269 135.807C258.912 135.807 246.717 131.742 237.684 123.612C228.651 115.482 224.044 104.311 223.863 90.0986V2.47656H250.963V89.2856C250.963 97.8973 253.01 104.19 257.105 108.165C261.261 112.079 266.982 114.037 274.269 114.037C289.505 114.037 297.243 106.027 297.484 90.0083V2.47656H324.674Z" fill="#4BBCEA"/>
<path d="M346.896 134V2.47656H392.965C408.924 2.47656 421.028 5.54785 429.278 11.6904C437.529 17.7728 441.654 26.7157 441.654 38.519C441.654 44.9627 439.998 50.6536 436.686 55.5918C433.373 60.4697 428.766 64.0529 422.865 66.3413C429.61 68.0275 434.909 71.43 438.763 76.5488C442.678 81.6676 444.635 87.9307 444.635 95.3379C444.635 107.984 440.6 117.56 432.53 124.063C424.461 130.567 412.958 133.88 398.023 134H346.896ZM373.995 76.7295V112.23H397.21C403.594 112.23 408.562 110.724 412.115 107.713C415.729 104.642 417.535 100.427 417.535 95.0669C417.535 83.0226 411.302 76.9102 398.836 76.7295H373.995ZM373.995 57.5791H394.049C407.719 57.3382 414.554 51.8882 414.554 41.229C414.554 35.2671 412.808 30.9914 409.315 28.4019C405.882 25.7521 400.432 24.4272 392.965 24.4272H373.995V57.5791ZM539.303 106.9H491.788L482.755 134H453.939L502.899 2.47656H528.011L577.242 134H548.426L539.303 106.9ZM499.105 84.9497H531.986L515.455 35.7188L499.105 84.9497ZM657.728 99.4932C657.728 94.3743 655.921 90.46 652.308 87.75C648.695 84.9798 642.191 82.0892 632.796 79.0781C623.402 76.0068 615.965 72.9958 610.484 70.0449C595.549 61.9753 588.082 51.1053 588.082 37.4351C588.082 30.3289 590.069 24.0057 594.044 18.4653C598.079 12.8647 603.83 8.4987 611.297 5.36719C618.825 2.23568 627.256 0.669922 636.59 0.669922C645.985 0.669922 654.356 2.38623 661.703 5.81885C669.05 9.19124 674.741 13.9788 678.775 20.1816C682.87 26.3844 684.918 33.4303 684.918 41.3193H657.818C657.818 35.2972 655.921 30.63 652.127 27.3179C648.333 23.9455 643.004 22.2593 636.139 22.2593C629.514 22.2593 624.365 23.6745 620.692 26.5049C617.018 29.2751 615.182 32.9486 615.182 37.5254C615.182 41.8011 617.319 45.3843 621.595 48.2749C625.931 51.1655 632.285 53.8755 640.655 56.4048C656.072 61.0418 667.303 66.793 674.349 73.6582C681.395 80.5234 684.918 89.0749 684.918 99.3125C684.918 110.694 680.612 119.637 672 126.141C663.389 132.585 651.796 135.807 637.223 135.807C627.105 135.807 617.892 133.97 609.581 130.296C601.271 126.563 594.917 121.474 590.521 115.03C586.185 108.587 584.017 101.119 584.017 92.6279H611.207C611.207 107.141 619.879 114.398 637.223 114.398C643.666 114.398 648.695 113.103 652.308 110.514C655.921 107.864 657.728 104.19 657.728 99.4932ZM782.477 77.0005H730.445V112.23H791.51V134H703.346V2.47656H791.329V24.4272H730.445V55.7725H782.477V77.0005Z" fill="black"/>
</svg>
