<?xml version="1.0" standalone="no"?>
<!DOCTYPE svg PUBLIC "-//W3C//DTD SVG 20010904//EN"
 "http://www.w3.org/TR/2001/REC-SVG-20010904/DTD/svg10.dtd">
<svg version="1.0" xmlns="http://www.w3.org/2000/svg"
 width="5171.000000pt" height="2901.000000pt" viewBox="0 0 5171.000000 2901.000000"
 preserveAspectRatio="xMidYMid meet">
<metadata>
Created by potrace 1.16, written by Peter Selinger 2001-2019
</metadata>
<g transform="translate(0.000000,2901.000000) scale(0.100000,-0.100000)"
fill="#000000" stroke="none">
<path d="M18632 24518 c-7 -7 -12 -22 -12 -35 0 -13 -4 -23 -10 -23 -5 0 -10
-7 -10 -15 0 -8 4 -15 8 -15 5 0 14 -11 21 -24 11 -21 27 -27 109 -41 53 -10
102 -24 110 -31 7 -8 9 -14 4 -14 -5 0 -15 -35 -22 -77 -7 -43 -15 -80 -19
-83 -4 -3 -12 -38 -18 -79 -8 -47 -18 -79 -30 -90 -10 -10 -25 -37 -32 -59 -8
-23 -18 -42 -22 -42 -4 0 -15 -22 -24 -50 -9 -27 -20 -50 -24 -50 -7 0 -41
-106 -41 -128 0 -7 -4 -12 -9 -12 -4 0 -16 -40 -27 -90 -10 -49 -21 -90 -24
-90 -4 0 -12 -31 -19 -70 -7 -38 -16 -70 -21 -70 -4 0 -13 -15 -19 -32 -11
-31 -63 -88 -81 -88 -5 0 -15 -6 -23 -14 -17 -17 -110 -46 -149 -46 -15 0 -28
-4 -28 -8 0 -5 -46 -14 -102 -20 -56 -7 -104 -16 -107 -20 -4 -5 -25 -16 -48
-25 -52 -20 -134 -99 -153 -147 -8 -19 -19 -40 -26 -47 -14 -15 -34 -144 -34
-223 0 -76 18 -160 36 -167 8 -3 14 -11 14 -19 0 -7 13 -20 29 -29 16 -8 31
-20 34 -27 5 -17 -12 -68 -24 -68 -5 0 -9 -7 -9 -15 0 -8 4 -15 9 -15 6 0 18
-25 27 -55 11 -35 22 -54 30 -51 7 3 27 -11 46 -30 18 -18 39 -34 46 -34 6 0
12 -4 12 -8 0 -5 32 -16 70 -26 39 -10 70 -22 70 -26 0 -5 16 -14 35 -20 19
-6 38 -17 42 -24 5 -6 27 -20 51 -30 23 -11 42 -22 42 -25 0 -4 14 -15 31 -25
30 -18 50 -34 94 -76 12 -11 24 -20 29 -20 4 0 27 -20 50 -45 66 -69 72 -64
79 68 4 61 7 156 7 210 0 58 4 97 10 97 6 0 10 23 10 51 0 44 4 54 32 80 18
16 35 29 39 29 3 0 18 11 33 25 15 14 30 25 34 25 9 0 42 58 42 75 0 7 4 15
10 17 5 2 15 30 22 63 6 33 16 63 22 67 16 11 15 416 -1 426 -6 4 -15 20 -18
35 -4 16 -14 31 -21 34 -8 3 -14 11 -14 18 0 7 -6 16 -12 18 -7 3 2 8 20 12
17 4 32 11 32 16 0 5 15 9 33 9 l34 0 17 -80 c9 -44 20 -80 24 -80 5 0 16 -25
27 -55 10 -30 22 -55 26 -55 5 0 16 -17 26 -37 9 -21 25 -44 35 -51 10 -7 18
-17 18 -21 0 -17 111 -119 147 -136 21 -10 41 -22 44 -27 3 -5 36 -14 72 -21
37 -6 67 -15 67 -19 0 -4 29 -8 65 -8 37 0 65 4 65 10 0 6 9 10 20 10 19 0 66
18 85 32 58 44 58 45 63 101 4 57 -23 197 -40 197 -4 0 -12 18 -18 40 -6 22
-14 40 -19 40 -5 0 -16 26 -26 58 -10 31 -21 59 -25 62 -8 5 -30 99 -30 125 0
8 7 15 16 15 24 0 73 32 80 52 3 10 13 25 22 35 22 22 24 149 3 162 -17 11
-18 104 -2 109 14 5 15 142 1 142 -5 0 -10 9 -10 20 0 11 4 20 8 20 5 0 17 52
27 115 10 63 22 115 26 115 5 0 9 13 9 28 0 38 5 41 48 32 20 -4 54 -11 75
-14 l37 -7 0 -208 0 -208 25 5 25 4 0 194 c0 121 4 194 10 194 17 0 50 34 50
52 0 10 5 18 10 18 20 0 10 50 -15 74 -20 20 -45 28 -130 42 -58 10 -105 20
-105 24 0 4 -38 13 -85 20 -47 7 -85 16 -85 20 0 4 -51 15 -112 25 -62 10
-115 21 -118 25 -3 4 -50 15 -105 25 -55 10 -102 21 -105 24 -3 4 -54 15 -115
25 -60 10 -112 22 -115 25 -6 9 -197 41 -243 41 -18 0 -38 -5 -45 -12z m922
-670 c3 -13 9 -53 12 -90 4 -38 11 -68 15 -68 5 0 9 -52 9 -115 0 -70 -4 -115
-10 -115 -5 0 -10 -7 -10 -16 0 -9 -8 -29 -17 -45 -16 -27 -21 -29 -80 -29
-67 0 -67 0 -77 -57 -5 -32 -5 -33 32 -33 20 0 42 -4 48 -8 6 -4 18 -38 27
-77 10 -38 22 -71 27 -73 6 -2 10 -10 10 -17 0 -19 31 -109 39 -115 4 -3 15
-27 26 -55 10 -27 22 -53 27 -56 5 -3 11 -28 14 -56 6 -44 4 -53 -17 -72 -13
-12 -35 -25 -49 -28 -14 -3 -28 -11 -32 -17 -5 -7 -45 -11 -106 -11 -80 0
-102 4 -116 18 -10 9 -24 17 -32 17 -18 0 -144 120 -144 137 0 7 -5 13 -10 13
-6 0 -17 18 -26 40 -9 22 -20 40 -24 40 -5 0 -14 17 -21 38 -6 20 -15 39 -19
42 -9 6 -40 95 -40 115 0 8 -4 15 -10 15 -5 0 -10 11 -10 24 0 20 6 25 45 30
l45 7 0 50 c0 27 5 49 10 49 6 0 10 16 10 36 0 19 7 67 16 106 16 69 16 72 -2
84 -35 24 -54 47 -54 66 0 10 -6 18 -12 19 -10 0 -10 2 0 6 6 2 12 13 12 24 0
23 36 39 86 39 19 0 34 4 34 8 0 4 41 16 90 26 50 10 90 21 90 25 0 4 17 13
38 20 36 13 48 21 87 60 28 27 61 27 69 -1z"/>
<path d="M19757 23203 c4 -10 11 -21 15 -24 5 -3 16 -51 25 -105 8 -54 18
-101 22 -104 3 -3 15 -30 25 -60 11 -30 25 -60 30 -66 6 -6 22 -26 36 -44 35
-48 112 -117 143 -129 5 -2 17 -11 27 -20 10 -9 30 -25 44 -36 15 -11 36 -28
47 -37 27 -25 24 -4 -5 27 -13 14 -29 39 -36 55 -7 17 -16 30 -21 30 -4 0 -16
17 -26 37 -9 21 -25 45 -35 55 -10 10 -18 25 -18 33 0 7 -6 18 -13 22 -7 4
-21 27 -31 51 -11 23 -22 42 -26 42 -3 0 -12 17 -19 38 -8 20 -22 45 -32 55
-11 10 -19 24 -19 32 0 8 -6 18 -13 22 -6 4 -19 22 -27 38 -13 26 -85 105 -96
105 -2 0 0 -8 3 -17z"/>
<path d="M34630 23102 c0 -4 -48 -16 -107 -26 -60 -10 -110 -21 -113 -25 -3
-4 -54 -15 -115 -25 -60 -10 -112 -22 -115 -26 -3 -4 -56 -15 -117 -25 -62
-10 -113 -21 -113 -25 0 -4 -49 -15 -110 -25 -60 -11 -110 -22 -110 -26 0 -4
-37 -12 -82 -19 -46 -6 -85 -15 -88 -19 -3 -4 -47 -15 -99 -24 -52 -9 -97 -19
-100 -22 -3 -4 -6 -32 -6 -63 0 -55 1 -58 32 -72 l33 -15 0 -175 0 -175 -73
-1 c-89 0 -163 -11 -180 -27 -7 -7 -30 -21 -52 -32 -46 -24 -74 -51 -95 -90
-8 -16 -23 -37 -32 -47 -9 -9 -20 -33 -24 -52 -3 -20 -10 -36 -14 -36 -8 0
-26 -101 -36 -200 -4 -36 -10 -67 -13 -70 -4 -3 -14 -52 -24 -110 -10 -58 -22
-106 -27 -108 -6 -2 -10 -10 -10 -18 0 -25 -33 -118 -47 -132 -7 -7 -13 -20
-13 -28 0 -8 -7 -17 -15 -20 -8 -4 -15 -11 -15 -18 0 -14 -73 -86 -88 -86 -6
0 -18 -7 -26 -16 -12 -12 -48 -18 -139 -24 -134 -9 -175 -17 -195 -37 -7 -7
-22 -13 -32 -13 -11 0 -23 -6 -27 -13 -4 -6 -21 -19 -38 -27 -38 -19 -86 -67
-105 -105 -8 -17 -21 -34 -27 -38 -7 -4 -18 -28 -24 -52 -6 -25 -15 -45 -19
-45 -13 0 -30 -138 -30 -253 0 -111 15 -227 30 -227 4 0 15 -21 25 -47 10 -27
24 -52 32 -56 7 -4 13 -13 13 -19 0 -19 155 -164 191 -178 19 -8 39 -19 45
-25 6 -6 31 -17 55 -25 24 -8 46 -18 49 -22 10 -13 181 -38 266 -38 102 0 231
18 247 35 7 7 18 69 26 141 7 71 16 131 20 134 4 3 14 53 21 113 7 59 16 107
19 107 4 0 15 56 25 125 11 69 22 125 26 125 4 0 10 -116 14 -257 8 -341 7
-335 59 -352 23 -7 73 -16 110 -19 54 -4 75 -1 102 14 19 10 35 21 35 24 0 3
17 12 37 19 21 8 43 19 49 26 7 6 39 18 72 25 44 9 63 18 70 34 6 11 14 75 17
141 4 66 11 122 16 123 5 2 9 17 9 34 0 53 33 293 40 298 7 5 26 97 37 183 3
20 9 37 14 37 5 0 9 38 8 85 0 47 -5 85 -10 85 -5 0 -9 9 -9 20 0 25 -21 72
-40 88 -13 12 -13 13 0 6 13 -7 13 -5 1 9 -7 9 -18 14 -25 10 -6 -3 -8 -3 -4
2 10 11 -10 45 -27 45 -7 0 -20 6 -27 14 -18 17 -104 36 -166 36 -70 0 -108
-14 -147 -56 -19 -20 -38 -34 -42 -31 -3 4 -1 7 5 7 6 0 13 13 17 30 4 16 12
33 19 37 8 5 21 23 30 41 9 17 20 32 24 32 4 0 15 15 25 33 10 18 32 42 49 52
17 10 39 25 49 34 41 37 53 44 97 57 25 8 47 13 48 11 2 -1 6 -34 10 -72 4
-39 10 -72 13 -75 4 -3 15 -40 25 -82 11 -43 22 -78 26 -78 3 0 14 -22 24 -50
10 -27 21 -50 25 -50 4 0 13 -16 20 -35 7 -19 21 -40 32 -45 10 -6 19 -17 19
-24 0 -8 12 -21 26 -31 25 -16 56 -40 78 -61 14 -13 108 -44 135 -44 12 0 21
-4 21 -10 0 -6 28 -10 65 -10 36 0 65 4 65 9 0 4 17 11 37 14 23 4 48 18 67
39 31 33 31 34 31 141 -1 63 -5 111 -11 115 -14 9 -44 201 -44 279 0 67 -18
103 -52 103 -10 0 -23 9 -30 20 -16 25 -34 26 -41 3 -2 -10 -8 -26 -12 -35 -6
-15 -2 -18 23 -18 28 0 29 -2 36 -52 3 -29 6 -67 6 -85 0 -17 3 -33 8 -35 4
-1 16 -59 26 -128 9 -69 22 -126 27 -128 5 -2 9 -26 9 -54 0 -53 -16 -77 -52
-78 -9 0 -18 -5 -20 -11 -5 -14 -188 -16 -197 -1 -3 5 -22 17 -42 25 -39 16
-115 89 -125 119 -3 10 -9 18 -14 18 -5 0 -14 16 -20 35 -6 19 -15 35 -19 35
-4 0 -16 37 -26 83 -10 45 -22 84 -26 87 -5 4 -29 159 -29 193 0 4 20 7 44 7
31 0 46 5 50 16 11 28 6 34 -26 34 -60 0 -78 10 -78 41 0 19 -5 29 -15 29 -14
0 -37 22 -89 82 -16 18 -46 99 -46 123 0 8 -4 15 -9 15 -5 0 -13 41 -17 91 -4
52 -11 92 -18 94 -6 2 -23 6 -38 9 l-28 6 0 184 0 183 57 12 c31 6 66 11 79
11 24 0 24 0 45 -125 6 -38 17 -73 22 -77 8 -4 10 -55 9 -147 -2 -103 2 -157
14 -205 9 -36 20 -66 24 -66 5 0 13 -12 18 -27 13 -37 61 -93 79 -93 7 0 16
-7 20 -16 12 -33 83 -40 83 -9 0 8 11 22 25 33 14 11 25 24 25 29 0 6 19 29
42 51 37 37 40 44 30 64 -31 65 -25 123 15 139 26 10 103 -5 103 -19 0 -9 143
-42 178 -42 12 0 22 -4 22 -10 0 -11 117 -14 122 -2 2 4 25 14 51 23 44 16 47
16 43 0 -2 -9 -10 -41 -17 -71 -6 -30 -15 -57 -19 -60 -3 -3 -14 -31 -24 -62
-10 -32 -22 -58 -27 -58 -5 0 -9 -4 -9 -10 0 -36 79 40 96 93 4 9 10 17 14 17
4 0 15 21 25 48 10 26 21 49 25 52 15 10 30 113 30 198 -1 135 -14 175 -77
237 -15 14 -26 44 -34 91 -7 38 -16 71 -20 74 -9 6 -31 149 -24 159 2 5 45 14
95 22 49 7 90 16 90 19 0 4 11 12 25 18 20 9 25 19 25 50 0 53 -36 92 -85 92
-19 0 -35 -4 -35 -8z"/>
<path d="M20290 22415 c0 -8 5 -15 10 -15 6 0 10 -13 10 -30 0 -16 -4 -30 -9
-30 -5 0 -12 -16 -15 -36 -4 -19 -16 -44 -27 -55 -10 -10 -19 -23 -19 -27 0
-5 -14 -23 -31 -40 l-31 -32 -519 0 -518 0 -33 -32 -33 -32 -3 -217 -3 -218
43 -3 c36 -3 43 -7 48 -28 4 -16 15 -27 30 -30 35 -7 54 -21 75 -53 30 -46 10
-191 -32 -235 -7 -7 -17 -20 -22 -29 -6 -12 -27 -18 -75 -21 l-66 -4 0 -234 0
-234 -30 0 c-16 0 -30 4 -30 8 0 5 -42 12 -93 15 -112 7 -237 27 -237 37 0 4
-13 10 -29 13 -16 3 -40 9 -55 13 -22 5 -26 3 -26 -15 0 -12 -4 -21 -10 -21
-6 0 -10 -63 -10 -170 0 -107 4 -170 10 -170 6 0 10 -17 10 -37 0 -52 32 -297
40 -303 4 -3 15 -54 25 -115 10 -60 21 -112 25 -115 3 -3 14 -49 24 -102 10
-53 21 -98 25 -100 4 -2 15 -39 24 -83 9 -44 22 -81 27 -83 6 -2 10 -20 10
-40 0 -54 33 -326 40 -332 4 -3 13 -58 20 -122 7 -65 16 -118 20 -118 4 0 15
-72 25 -160 10 -88 21 -160 25 -160 4 0 15 -64 25 -142 10 -79 21 -145 25
-148 3 -3 14 -52 24 -110 10 -58 22 -107 26 -110 9 -6 30 -212 30 -297 0 -59
-1 -61 -29 -66 -25 -5 -29 -11 -35 -53 -3 -26 -6 -73 -6 -105 l0 -59 151 0
152 0 -7 97 c-8 103 -18 122 -63 123 -22 0 -22 3 -16 63 3 34 9 64 13 67 3 3
15 85 25 183 10 97 21 177 25 177 4 0 15 83 25 185 10 102 21 185 25 185 4 0
15 82 25 183 10 100 22 184 25 187 4 3 13 61 20 130 7 69 16 127 20 130 4 3
15 85 25 183 10 97 21 177 25 177 4 0 15 69 25 153 10 83 21 154 24 157 4 3
16 78 26 168 10 89 22 162 27 162 4 0 8 10 8 23 0 19 3 17 16 -10 9 -18 20
-33 24 -33 4 0 15 -18 24 -40 9 -22 20 -40 26 -40 5 0 10 -6 10 -12 0 -7 11
-26 25 -42 13 -15 30 -41 37 -57 7 -16 16 -29 20 -29 4 0 15 -17 24 -37 10
-21 24 -42 31 -46 7 -5 13 -26 13 -51 0 -50 20 -156 29 -156 4 0 15 -29 26
-65 10 -36 22 -65 26 -65 5 0 13 -18 19 -40 6 -22 14 -40 19 -40 4 0 16 -27
26 -60 10 -33 22 -60 26 -60 5 0 16 -25 24 -55 9 -30 20 -55 25 -55 4 0 16
-27 26 -60 10 -33 21 -60 25 -60 5 0 16 -25 25 -55 10 -30 21 -55 25 -55 5 0
16 -25 25 -55 10 -30 21 -55 24 -55 4 0 13 -18 20 -40 7 -22 17 -40 21 -40 4
0 15 -25 24 -55 8 -30 19 -55 24 -55 5 0 17 -27 27 -60 10 -33 21 -60 25 -60
3 0 14 -21 24 -47 10 -27 21 -50 25 -53 3 -3 12 -25 20 -49 8 -24 19 -49 25
-55 6 -6 17 -27 25 -46 8 -19 19 -40 26 -47 6 -7 18 -32 25 -57 7 -26 16 -46
19 -46 3 0 14 -20 25 -45 11 -25 23 -45 27 -45 4 0 15 -25 23 -55 9 -30 20
-55 24 -55 4 0 15 -31 26 -70 11 -38 22 -70 26 -70 8 0 27 -97 33 -174 3 -33
9 -62 14 -65 5 -3 15 -30 22 -58 6 -29 16 -53 20 -53 17 0 110 34 110 40 0 4
27 15 60 26 33 10 60 22 60 25 0 4 20 13 45 20 25 7 45 16 45 20 0 3 25 14 55
24 30 9 55 20 55 25 0 4 20 14 45 21 37 11 45 18 45 37 0 13 -5 33 -11 44 -11
20 -17 20 -117 14 -59 -4 -109 -11 -112 -15 -3 -5 -32 -11 -65 -15 -33 -4 -76
-9 -96 -12 l-37 -5 -12 120 c-7 67 -16 121 -20 121 -4 0 -15 70 -25 155 -10
85 -21 155 -25 155 -3 0 -12 54 -19 120 -7 66 -16 120 -20 120 -3 0 -15 73
-25 163 -11 89 -22 164 -26 167 -4 3 -15 77 -25 165 -10 88 -22 162 -25 165
-8 6 -40 276 -40 333 0 20 -4 37 -10 37 -5 0 -10 16 -10 35 0 60 -31 340 -39
345 -7 5 -24 100 -37 208 -4 28 -10 52 -14 52 -3 0 -13 50 -20 110 -7 61 -17
110 -22 110 -4 0 -8 7 -8 15 0 13 36 15 260 15 167 0 260 4 260 10 0 6 8 10
18 10 9 1 28 10 42 21 l25 21 3 342 3 341 -61 12 c-62 12 -99 39 -100 75 0 9
-6 18 -12 20 -18 6 -18 190 0 195 6 3 12 11 12 19 0 7 15 21 33 30 17 9 34 20
37 24 3 4 14 9 25 12 18 3 20 10 17 56 -4 50 -3 52 23 52 l26 0 -3 186 c-3
162 -5 187 -20 195 -9 5 -24 16 -32 24 -12 13 -62 15 -301 15 -261 0 -287 1
-281 16 32 84 30 165 -5 187 -11 6 -27 27 -36 45 -16 34 -33 43 -33 17z m-97
-545 c20 -6 37 -14 37 -18 0 -5 17 -14 38 -21 41 -15 41 -15 127 -98 33 -32
67 -70 74 -85 8 -16 17 -28 21 -28 4 0 15 -26 26 -57 19 -58 31 -76 46 -67 12
7 10 -14 -4 -39 -14 -27 -38 -51 -38 -39 0 5 -13 15 -30 22 -29 12 -40 35 -20
42 13 4 -11 80 -32 102 -10 10 -18 22 -18 27 0 6 -30 41 -67 78 -64 64 -119
101 -150 101 -7 0 -13 4 -13 9 0 24 -164 45 -255 32 -73 -11 -85 -6 -85 31 0
10 10 18 28 22 46 8 275 -2 315 -14z m-427 -54 c20 -21 18 -31 -11 -44 -14 -6
-25 -16 -25 -22 0 -5 -6 -10 -13 -10 -18 0 -91 -72 -113 -111 -11 -19 -24 -38
-30 -44 -7 -5 -17 -27 -24 -47 -10 -35 -30 -52 -30 -28 0 6 -7 10 -16 10 -12
0 -14 7 -9 33 11 48 23 77 34 77 5 0 14 14 21 30 15 35 97 120 116 120 7 0 17
6 21 13 8 14 42 36 56 37 5 0 15 -6 23 -14z m390 -234 c6 -4 17 -28 25 -54 7
-27 16 -48 20 -48 3 0 12 -27 19 -60 15 -70 24 -80 50 -52 23 24 85 36 140 27
44 -7 120 -71 120 -99 0 -9 5 -16 10 -16 6 0 10 -27 10 -60 0 -33 -4 -60 -10
-60 -5 0 -12 -11 -16 -24 -12 -49 -76 -86 -147 -86 -23 0 -37 -4 -31 -8 6 -4
20 -42 29 -84 10 -43 22 -78 27 -78 4 0 8 -7 8 -15 0 -12 -19 -15 -108 -15
l-109 0 -13 70 -13 70 -138 0 -137 0 -7 -40 c-4 -22 -11 -40 -15 -40 -5 0 -10
-12 -12 -27 l-3 -28 -104 -3 -104 -3 7 43 c4 24 11 44 16 46 5 2 16 37 26 78
10 41 21 74 25 74 3 0 15 32 25 70 10 39 21 70 25 70 4 0 15 34 25 75 10 41
21 75 25 75 4 0 15 33 25 72 9 40 23 79 31 86 7 7 13 22 13 33 0 18 8 19 128
19 70 0 132 -4 138 -8z m-660 -150 c7 -4 13 -52 16 -116 3 -71 9 -111 16 -114
7 -2 12 -12 12 -22 0 -18 -32 -32 -55 -24 -25 10 -45 199 -29 262 6 22 20 28
40 14z"/>
<path d="M20020 21386 c0 -14 -4 -26 -9 -26 -5 0 -17 -35 -27 -77 -10 -43 -21
-80 -25 -83 -3 -3 -9 -17 -13 -32 l-6 -28 92 0 c51 0 88 4 83 8 -6 4 -19 42
-29 85 -10 42 -21 77 -26 77 -4 0 -11 20 -14 45 -8 49 -26 71 -26 31z"/>
<path d="M20330 21305 l0 -45 -45 0 c-45 0 -45 0 -45 -35 0 -35 0 -35 45 -35
l45 0 0 -45 0 -45 40 0 40 0 0 45 0 45 45 0 c45 0 45 0 45 35 0 35 0 35 -45
35 l-45 0 0 45 0 45 -40 0 -40 0 0 -45z"/>
<path d="M34486 21631 c-3 -5 0 -11 6 -13 10 -4 13 -48 15 -175 1 -167 16
-312 32 -323 5 -3 16 -31 25 -62 9 -32 20 -58 24 -58 4 0 16 -20 27 -45 11
-25 23 -45 27 -45 5 0 8 -6 8 -13 0 -7 8 -22 18 -33 10 -10 27 -35 38 -54 10
-19 25 -41 32 -48 7 -8 18 -34 24 -58 7 -24 16 -44 20 -44 4 0 8 -18 8 -40 0
-22 -4 -40 -10 -40 -5 0 -10 -11 -10 -25 0 -24 2 -25 70 -26 39 -1 76 -2 82
-3 7 -1 19 11 26 27 7 15 17 27 22 27 5 0 17 17 27 38 9 20 21 40 26 43 5 4
15 30 23 59 12 47 12 56 -3 81 -10 16 -21 29 -24 29 -4 0 -10 8 -13 18 -4 10
-15 28 -25 39 -10 11 -26 34 -35 51 -9 18 -20 32 -24 32 -5 0 -14 16 -22 35
-8 19 -17 35 -22 35 -4 0 -15 15 -24 33 -9 17 -20 34 -23 37 -4 3 -15 22 -24
43 -10 20 -21 37 -26 37 -4 0 -15 19 -25 42 -11 22 -26 49 -35 60 -9 10 -16
22 -16 26 -2 21 -19 56 -36 73 -10 10 -19 28 -19 39 0 11 -7 20 -15 20 -8 0
-12 6 -9 14 3 8 -3 23 -14 34 -11 11 -18 22 -16 25 7 7 -49 67 -63 67 -7 0
-13 6 -13 14 0 18 -26 40 -34 27z"/>
<path d="M35413 20553 c10 -15 -24 -34 -52 -28 -19 4 -27 -9 -22 -37 0 -5 -7
-8 -16 -9 -11 0 -13 -3 -5 -6 6 -2 10 -9 7 -13 -7 -12 30 -32 40 -22 5 4 5 1
1 -5 -10 -18 -23 -16 -47 8 -23 23 -39 19 -20 -5 10 -12 9 -14 -6 -12 -13 2
-25 -13 -45 -55 -16 -32 -28 -63 -28 -69 0 -5 -5 -10 -11 -10 -5 0 -15 -13
-20 -30 -6 -16 -14 -30 -18 -30 -4 0 -15 -20 -25 -45 -11 -25 -22 -45 -25 -45
-3 0 -12 -13 -19 -30 l-14 -30 -352 0 -353 0 -13 -24 c-15 -29 -6 -76 15 -76
8 0 15 -4 15 -10 0 -6 131 -10 374 -10 360 0 375 1 381 19 3 11 12 22 20 25 8
3 15 12 15 20 0 8 6 21 13 28 7 7 37 61 67 121 30 59 57 107 61 107 4 0 10 14
14 30 4 17 13 30 21 30 8 0 13 3 12 8 -1 4 3 17 10 30 7 12 9 22 5 22 -4 0 -2
5 4 11 9 9 9 17 0 31 -10 16 -8 22 12 39 12 10 28 16 35 12 6 -3 8 -3 4 2 -4
4 -3 14 4 22 9 11 7 12 -7 7 -12 -5 -16 -4 -12 3 4 6 -1 17 -10 24 -10 9 -14
9 -10 2z"/>
<path d="M34695 19890 c-4 -16 -11 -30 -16 -30 -5 0 -11 -11 -15 -25 -3 -14
-15 -30 -25 -36 -11 -5 -19 -15 -19 -22 0 -15 -63 -77 -77 -77 -6 0 -13 -7
-17 -15 -3 -8 -17 -20 -31 -25 -14 -5 -25 -14 -25 -18 0 -5 -21 -17 -47 -27
-27 -10 -50 -21 -53 -25 -3 -4 -39 -15 -80 -26 -41 -10 -77 -22 -80 -26 -3 -3
-46 -13 -95 -20 -170 -25 -794 -9 -815 21 -3 4 -44 15 -92 25 -49 10 -88 22
-88 26 0 4 -21 15 -46 25 -26 10 -55 26 -65 36 -28 28 -39 23 -39 -18 0 -52
21 -163 30 -163 5 0 11 -18 15 -40 4 -22 12 -46 19 -53 7 -6 21 -33 31 -60 10
-26 21 -47 24 -47 3 0 12 -15 20 -32 15 -34 26 -49 74 -98 15 -15 27 -32 27
-37 0 -5 25 -31 56 -58 30 -28 65 -60 78 -72 13 -13 28 -23 34 -23 6 0 17 -8
24 -18 7 -9 32 -26 55 -37 24 -11 43 -23 43 -27 0 -3 24 -14 53 -24 28 -9 54
-21 57 -25 3 -5 38 -16 78 -26 39 -10 72 -21 72 -25 0 -5 -2616 -8 -5813 -8
-5760 0 -5915 -1 -5937 -30 -3 -3 -24 -14 -47 -23 -24 -9 -52 -25 -62 -34 -11
-10 -38 -33 -60 -52 -23 -19 -41 -39 -41 -45 0 -6 -9 -17 -20 -24 -11 -7 -20
-19 -20 -27 0 -8 -4 -15 -8 -15 -9 0 -42 -87 -42 -112 0 -9 -6 -18 -12 -20
-10 -4 -14 -70 -16 -276 l-3 -271 261 -3 c169 -2 263 -7 268 -14 4 -5 23 -16
42 -24 19 -8 41 -22 48 -32 7 -10 19 -18 26 -18 8 0 19 -13 26 -30 7 -16 16
-30 20 -30 4 0 13 -29 20 -65 l12 -65 2740 0 c2671 0 2828 -2 2828 -29 0 -3
15 -13 33 -20 36 -16 117 -97 117 -118 0 -7 4 -13 9 -13 5 0 15 -15 21 -34 6
-19 16 -36 23 -39 16 -5 18 -7854 2 -7865 -6 -4 -16 -24 -24 -46 -7 -21 -20
-45 -27 -55 -57 -64 -94 -101 -103 -101 -5 0 -16 -6 -23 -13 -46 -44 99 -42
-2834 -45 l-2761 -2 -13 -62 c-6 -33 -17 -67 -23 -74 -7 -8 -21 -25 -32 -40
-22 -29 -27 -33 -71 -68 -48 -39 -101 -45 -352 -46 l-234 0 4 -275 c2 -174 7
-278 13 -283 6 -4 19 -33 29 -65 9 -32 25 -67 34 -77 9 -9 26 -30 37 -44 34
-47 78 -85 126 -112 18 -11 39 -24 46 -30 7 -7 29 -15 50 -19 21 -4 41 -12 45
-18 5 -9 302 -13 1168 -15 l1160 -3 0 -1364 c0 -922 3 -1380 11 -1413 15 -72
55 -114 116 -119 52 -5 133 12 133 27 0 6 6 10 14 10 8 0 23 11 34 25 11 14
24 25 29 25 5 0 19 10 30 23 12 12 65 66 120 119 54 53 119 118 145 145 26 26
80 80 120 120 40 39 94 93 120 120 26 26 80 80 120 120 40 39 94 93 120 120
26 26 80 80 120 120 40 40 105 105 145 145 39 40 93 94 120 120 26 26 72 72
102 102 29 31 58 56 63 56 5 0 346 336 756 748 l747 747 3643 5 c2645 4 3645
8 3650 16 4 6 24 14 44 18 21 4 43 12 50 19 7 7 31 21 52 32 51 26 138 111
157 153 7 18 17 32 21 32 4 0 13 19 20 43 6 23 16 45 21 48 17 12 26 149 27
409 l0 266 38 -4 c28 -2 33 -1 22 7 -13 9 -13 11 1 11 13 0 18 17 24 92 4 52
12 96 18 100 7 4 -11 8 -40 8 -32 0 -53 -5 -56 -12 -3 -7 -6 240 -6 549 -1
465 1 561 12 557 10 -3 13 3 10 23 -2 15 1 55 6 88 l9 60 -1 -85 c-2 -83 -2
-84 23 -86 l25 -2 -3 81 c-2 48 -9 85 -15 90 -9 5 -6 12 7 22 20 15 20 15 0
16 -12 1 -8 4 11 10 24 6 18 7 -28 6 l-57 -2 0 205 0 205 43 -3 44 -4 -12 96
c-10 85 -9 96 5 97 8 1 4 5 -10 9 -22 7 -20 8 15 10 l40 3 -45 7 c-25 5 -53 6
-62 3 -17 -4 -18 10 -18 205 0 205 1 210 20 205 11 -3 28 -2 37 2 17 7 16 8
-2 15 -17 7 -17 9 -2 9 15 1 17 12 17 85 0 80 1 85 23 89 16 3 14 5 -10 6 -17
0 -35 6 -39 12 -3 6 -15 9 -25 6 -19 -5 -19 49 -19 2478 l0 2482 53 7 c28 3
71 6 95 6 23 0 42 4 42 9 0 5 11 12 25 15 32 8 34 46 3 79 -19 20 -37 26 -95
32 -40 4 -73 11 -73 16 0 5 -11 9 -25 9 l-25 0 0 664 0 664 60 7 c33 4 60 10
60 14 0 4 32 13 70 20 39 7 70 17 70 22 0 5 6 9 14 9 24 0 116 33 116 42 0 4
6 8 14 8 19 0 79 32 89 48 4 6 13 12 19 12 16 0 111 100 125 132 10 21 10 72
1 230 -6 112 -14 205 -18 208 -3 3 -14 131 -24 285 -10 154 -22 282 -27 283
-5 2 -9 16 -9 32 0 34 -30 130 -41 130 -4 0 -15 7 -23 16 -16 16 -143 43 -203
44 -18 0 -33 4 -33 8 0 5 -61 16 -135 26 -74 10 -135 22 -135 25 0 4 -60 15
-132 25 -73 11 -135 22 -138 26 -4 5 -216 40 -247 40 -6 0 -14 -13 -18 -30z
m491 -1792 c-5 -68 -12 -125 -16 -128 -3 -3 -15 -106 -25 -230 -10 -124 -21
-227 -25 -230 -4 -3 -15 -111 -25 -240 -10 -129 -21 -237 -25 -240 -4 -3 -10
-38 -12 -79 -6 -81 -13 -91 -68 -91 -53 0 -60 13 -60 112 0 52 -4 88 -10 88
-6 0 -10 26 -10 58 0 76 -20 236 -30 242 -5 3 -16 59 -26 125 -9 66 -20 122
-24 125 -4 3 -10 25 -13 50 -19 155 -31 226 -37 230 -4 3 -15 71 -25 153 -10
81 -22 147 -27 147 -4 0 -8 5 -8 10 0 6 7 10 15 10 8 0 15 -4 15 -10 0 -6 57
-10 150 -10 88 0 150 4 150 10 0 5 26 11 58 13 31 2 64 4 72 5 13 2 14 -14 6
-120z m-3996 -437 c0 -5 9 -11 21 -14 11 -3 25 -19 32 -36 6 -17 15 -31 19
-31 4 0 8 -104 8 -231 0 -242 -5 -269 -43 -247 -9 5 -17 5 -17 1 0 -4 -38 -7
-85 -5 -56 2 -85 0 -85 -7 0 -8 -77 -11 -245 -11 l-245 0 0 250 c0 267 5 301
50 315 11 3 20 11 20 16 0 5 115 9 285 9 158 0 285 -4 285 -9z m1740 -40 c0
-5 9 -11 20 -14 31 -8 40 -49 40 -176 l0 -118 -40 -12 c-22 -6 -40 -16 -40
-20 0 -5 -20 -14 -45 -21 -25 -7 -50 -20 -55 -29 -8 -13 -9 -14 -10 -1 -1 13
-2 13 -13 0 -7 -9 -31 -21 -54 -28 -24 -7 -43 -16 -43 -21 0 -4 -6 -8 -13 -8
-20 0 -171 -75 -179 -89 -4 -6 -28 -15 -53 -18 -24 -4 -50 -13 -57 -20 -7 -6
-42 -22 -78 -34 -36 -11 -58 -22 -50 -22 8 0 0 -7 -19 -15 -23 -11 -71 -15
-162 -15 l-129 0 0 289 c0 299 5 345 41 356 10 4 19 11 19 16 0 5 182 9 460 9
260 0 460 -4 460 -9z m-3145 -2523 c-4 -255 -8 -464 -9 -465 0 -1 -32 -3 -71
-4 l-69 -2 -1 59 c-1 50 -5 64 -28 88 -22 24 -38 30 -83 34 -99 8 -134 -31
-132 -147 0 -39 5 -71 9 -71 5 0 6 8 3 18 -5 16 -5 16 9 0 8 -10 17 -14 21
-10 4 4 6 0 4 -8 -2 -9 6 -16 20 -18 26 -4 28 -14 7 -32 -12 -10 -18 -10 -30
0 -12 10 -15 10 -15 -1 0 -10 -3 -10 -8 -3 -4 7 -15 8 -27 3 -17 -6 -17 -8 -2
-8 15 -1 17 -12 17 -80 l0 -78 -31 -7 c-80 -16 -135 2 -158 51 -7 15 -17 36
-22 45 -11 23 -12 998 0 998 5 0 12 12 15 26 4 14 20 33 36 42 17 9 30 20 30
25 0 4 117 7 261 7 l261 0 -7 -462z m577 448 c6 -8 8 -7 8 2 0 9 268 12 1305
12 1037 0 1305 -3 1306 -12 0 -10 2 -10 6 0 4 9 95 12 409 12 222 0 404 -4
404 -8 0 -4 15 -13 33 -20 23 -8 36 -22 45 -45 17 -46 17 -1003 0 -1058 -23
-78 116 -73 -1801 -66 -936 4 -1703 7 -1704 7 -2 0 -3 59 -3 130 l0 130 -175
0 -175 0 0 466 0 465 168 -2 c110 -1 169 -5 174 -13z m2118 -1448 l170 3 1
-188 c1 -111 5 -172 9 -148 4 22 8 -169 9 -425 0 -292 -3 -470 -9 -476 -5 -5
-11 -95 -12 -204 l-3 -195 -167 -3 c-127 -2 -168 1 -168 10 0 6 -7 3 -15 -8
-13 -17 -14 77 -15 794 0 632 3 817 12 832 7 11 14 17 15 13 2 -5 79 -7 173
-5z m-950 -518 c0 -5 7 -10 15 -10 24 0 35 -35 35 -114 0 -87 -13 -124 -48
-133 -14 -3 -298 -6 -633 -7 -486 -1 -611 2 -621 12 -8 8 -14 47 -16 106 -4
97 6 136 33 136 8 0 15 5 15 10 0 7 210 10 610 10 400 0 610 -3 610 -10z
m-1150 -1250 c0 -6 5 -10 11 -10 5 0 7 5 4 10 -4 7 108 10 329 10 217 0 336
-4 336 -10 0 -5 9 -10 20 -10 11 0 20 5 20 12 0 9 3 9 12 0 9 -9 63 -11 192
-10 l181 2 -185 6 c-133 4 -61 6 253 7 267 1 437 -2 437 -8 0 -5 53 -8 128 -7
l127 2 -125 6 -125 6 159 1 c87 0 154 -2 148 -6 -6 -3 70 -6 168 -6 98 0 176
3 174 7 -2 4 9 6 25 6 17 -1 28 -5 24 -11 -3 -5 4 -4 15 2 27 14 266 15 257 1
-3 -5 1 -10 9 -10 9 0 16 5 16 10 0 7 140 10 400 10 260 0 400 -3 400 -10 0
-5 8 -10 18 -10 21 -1 55 -28 71 -57 16 -30 16 -1032 0 -1067 -25 -55 -42 -56
-484 -56 -234 1 -403 5 -400 10 3 5 0 12 -6 16 -8 4 -9 3 -5 -4 5 -9 -32 -12
-141 -13 -81 0 -238 -1 -348 -2 l-200 -1 178 -3 177 -3 0 -65 c0 -37 4 -65 10
-65 7 0 10 -200 10 -580 l0 -580 160 0 160 0 -14 -35 c-8 -19 -24 -44 -35 -56
-11 -12 -23 -35 -26 -50 -4 -16 -11 -29 -16 -29 -4 0 -16 -15 -25 -32 -9 -18
-20 -35 -23 -38 -3 -3 -15 -22 -26 -42 -11 -21 -23 -38 -26 -38 -4 0 -12 -13
-18 -30 -5 -16 -14 -30 -18 -30 -4 0 -17 -20 -28 -45 -11 -25 -23 -45 -27 -45
-4 0 -14 -16 -22 -35 -8 -19 -20 -35 -25 -35 -6 0 -11 -7 -11 -15 0 -13 -26
-15 -175 -15 -171 0 -175 0 -186 23 -7 12 -15 24 -18 27 -3 3 -15 22 -26 43
-11 20 -23 37 -26 37 -4 0 -12 14 -18 30 -5 17 -14 30 -18 30 -4 0 -17 20 -28
45 -11 25 -23 45 -27 45 -4 0 -14 16 -22 35 -8 19 -19 35 -23 35 -5 0 -17 20
-27 45 -11 25 -22 45 -25 45 -4 0 -15 17 -26 38 -11 20 -23 39 -26 42 -3 3
-11 15 -18 28 l-12 22 166 0 165 0 0 651 0 650 -397 -3 c-219 -2 -649 -2 -955
0 l-558 2 0 130 0 130 -367 0 -368 0 0 53 c0 38 -5 59 -17 71 -10 10 -18 21
-18 26 0 12 -58 30 -96 30 -73 0 -109 -39 -109 -119 0 -55 6 -83 20 -93 6 -5
5 -8 -2 -8 -7 0 -22 10 -34 23 l-23 22 17 -26 c11 -18 12 -30 5 -37 -6 -6 -6
-12 3 -17 7 -5 10 -4 5 3 -11 19 15 25 32 8 14 -14 14 -17 2 -14 -12 2 -16
-14 -20 -90 l-5 -94 28 5 c16 2 24 0 19 -5 -5 -5 -49 -8 -98 -6 -71 2 -89 6
-89 18 -1 8 3 18 8 21 5 3 2 9 -6 12 -12 4 -15 0 -12 -14 3 -14 -1 -19 -12
-17 -9 2 -18 9 -21 17 -3 8 0 11 6 7 12 -7 10 20 -3 31 -4 4 -5 2 -1 -4 4 -7
2 -13 -4 -13 -6 0 -10 8 -8 18 2 10 11 16 23 14 15 -2 17 -1 6 6 -7 5 -22 7
-32 5 -18 -5 -19 9 -19 486 0 280 4 491 9 491 5 0 12 15 15 34 7 39 20 51 59
61 15 4 27 11 27 16 0 6 225 9 545 9 344 0 545 -4 545 -10z m578 -3135 c-3
-90 -4 -96 -32 -122 -19 -17 -31 -23 -34 -15 -2 7 -10 12 -18 12 -26 0 -62 31
-73 62 -12 34 -15 141 -4 151 3 4 42 7 86 7 l79 0 -4 -95z"/>
<path d="M29473 15343 c-28 -6 -72 -50 -79 -80 -13 -50 3 -106 38 -136 30 -26
39 -29 88 -25 74 5 110 39 117 112 5 47 2 54 -29 88 -34 37 -83 52 -135 41z"/>
<path d="M33517 15336 c-21 -8 -40 -16 -41 -18 -38 -44 -32 -188 8 -188 7 0
16 -7 20 -15 4 -11 21 -15 62 -15 53 0 60 3 91 36 29 32 33 43 33 90 0 46 -4
58 -30 84 -16 16 -37 30 -47 30 -10 0 -27 2 -38 5 -11 3 -37 -2 -58 -9z"/>
<path d="M33494 14798 c-30 -14 -44 -50 -44 -114 0 -48 4 -58 30 -84 27 -26
38 -30 90 -30 52 0 62 3 89 31 28 27 31 37 31 89 0 52 -4 63 -30 90 -26 27
-35 30 -87 29 -32 0 -68 -5 -79 -11z"/>
<path d="M29444 12109 c-51 -26 -68 -104 -38 -178 13 -34 21 -40 61 -50 60
-16 100 -6 138 33 25 26 30 39 30 81 0 28 -6 57 -13 65 -7 8 -19 24 -26 34
-10 15 -28 20 -72 23 -33 1 -68 -2 -80 -8z"/>
<path d="M33485 12087 c-37 -34 -38 -36 -33 -95 3 -50 9 -66 32 -89 24 -24 36
-28 86 -28 52 0 61 4 86 30 22 24 29 42 32 87 4 54 2 59 -28 89 -26 26 -42 33
-84 37 -49 4 -55 2 -91 -31z"/>
<path d="M33487 11559 c-35 -31 -37 -36 -37 -90 0 -50 4 -62 30 -91 28 -30 35
-33 90 -33 55 0 61 3 90 34 25 29 30 43 30 86 0 43 -5 57 -30 85 -25 28 -38
34 -83 38 -48 4 -56 1 -90 -29z"/>
<path d="M11963 18956 c-31 -31 -37 -116 -8 -116 9 0 18 -6 21 -14 3 -8 28
-23 55 -32 27 -10 49 -22 49 -26 0 -4 6 -8 13 -8 7 0 21 -6 30 -12 16 -12 16
-16 1 -55 -10 -24 -21 -43 -26 -43 -4 0 -8 -6 -8 -13 0 -7 -8 -22 -18 -33 -10
-10 -24 -35 -31 -54 -8 -19 -20 -40 -27 -46 -8 -6 -21 -29 -30 -50 -9 -21 -20
-42 -25 -45 -18 -11 -29 -161 -18 -248 5 -47 13 -88 18 -91 4 -3 13 -24 19
-47 13 -42 28 -61 40 -49 3 4 11 48 17 98 6 56 15 93 23 96 6 2 12 -2 12 -9 0
-23 67 -77 111 -90 24 -7 47 -17 50 -22 3 -5 43 -11 89 -14 72 -5 83 -9 92
-28 9 -19 20 -23 70 -27 64 -5 78 -15 78 -59 0 -28 -43 -82 -73 -93 -15 -5
-17 -12 -11 -43 4 -21 10 -40 14 -43 4 -3 11 -24 15 -47 4 -24 11 -43 16 -43
5 0 9 4 9 8 0 5 25 14 55 21 31 7 63 21 73 30 9 10 31 26 49 36 30 18 63 75
63 109 0 8 5 16 10 18 6 2 13 37 16 78 6 78 20 140 33 140 4 0 15 23 25 50 10
28 21 50 25 50 4 0 14 18 21 40 7 22 16 40 20 40 4 0 10 9 13 20 6 23 39 27
59 6 8 -7 30 -19 51 -27 24 -8 37 -19 37 -31 0 -10 -4 -18 -8 -18 -5 0 -17
-45 -27 -100 -10 -55 -21 -100 -25 -100 -4 0 -12 -30 -19 -67 -7 -38 -15 -78
-18 -90 -4 -20 -1 -23 25 -23 29 0 29 1 42 75 7 41 16 75 20 75 4 0 15 45 25
100 10 55 22 100 27 100 4 0 8 7 8 15 0 8 9 15 20 15 32 0 68 21 74 44 14 53
7 84 -24 103 -16 9 -30 20 -30 23 0 3 -25 14 -55 25 -30 10 -55 22 -55 26 0 4
-22 15 -50 25 -27 10 -50 21 -50 25 0 4 -16 13 -35 19 -19 6 -35 15 -35 20 0
5 -20 16 -45 26 -25 9 -45 20 -45 23 0 4 -22 15 -50 25 -27 10 -50 21 -50 25
0 4 -22 15 -50 25 -27 10 -50 22 -50 26 0 5 -20 16 -45 26 -25 9 -45 20 -45
24 0 4 -18 13 -40 20 -22 7 -40 17 -40 21 0 4 -22 15 -50 25 -27 10 -50 21
-50 25 0 4 -20 15 -45 26 -25 10 -45 21 -45 24 0 4 -22 15 -50 25 -27 10 -50
21 -50 25 0 4 -22 15 -50 25 -27 10 -50 22 -50 26 0 17 -56 5 -77 -16z"/>
<path d="M12527 17604 c-16 -16 -7 -44 14 -44 21 0 22 -3 16 -77 -3 -42 -9
-79 -14 -82 -4 -3 -14 -24 -22 -46 -19 -55 -102 -134 -159 -151 -63 -20 -157
-18 -193 3 -43 25 -54 64 -51 176 1 54 4 102 7 107 3 5 23 11 45 15 34 6 40
11 40 31 0 20 -5 24 -29 24 -48 0 -95 -22 -132 -62 -20 -21 -40 -38 -46 -38
-15 0 -123 -114 -123 -130 0 -5 -6 -15 -12 -22 -17 -17 -35 -72 -44 -128 -4
-25 -11 -47 -15 -50 -9 -6 -29 -188 -29 -265 0 -29 -4 -55 -9 -57 -5 -1 -17
-140 -27 -308 -10 -168 -21 -307 -24 -310 -4 -3 -10 -69 -13 -147 l-7 -143
330 0 c182 0 330 -3 330 -7 0 -5 13 -15 29 -24 24 -14 30 -26 36 -68 4 -28 10
-51 15 -51 4 0 12 -26 16 -57 l9 -58 65 -14 c36 -7 67 -17 68 -22 2 -5 10 -9
19 -9 19 0 74 -31 89 -49 12 -16 84 -7 84 10 0 5 16 17 35 25 19 8 35 18 35
22 0 4 18 15 40 25 22 9 40 21 40 26 0 5 13 14 29 21 16 6 32 18 35 26 3 8 12
14 20 14 8 0 21 8 28 18 7 10 30 26 51 35 20 10 37 22 37 26 0 5 8 11 18 15
21 7 49 26 74 49 10 9 22 17 27 17 7 0 23 13 81 64 8 7 30 19 48 27 36 16 40
24 15 33 -30 10 -54 28 -141 107 -24 21 -48 39 -53 39 -5 0 -16 11 -25 25 -9
13 -24 27 -34 30 -18 6 -87 67 -187 168 -89 89 -90 90 -110 149 -10 29 -23 58
-29 64 -6 7 -16 45 -23 85 -8 41 -17 76 -21 79 -17 11 -43 285 -36 385 7 114
25 225 35 225 4 0 15 18 25 40 12 27 26 42 42 46 25 6 25 7 6 24 -11 10 -43
26 -73 37 -30 10 -56 21 -59 25 -3 3 -17 9 -32 13 -15 4 -30 16 -33 26 -4 10
-14 23 -23 28 -25 13 -97 23 -105 15z"/>
<path d="M36180 17281 c0 -5 -54 -12 -120 -16 l-120 -7 0 -27 c0 -34 -31 -61
-70 -61 -33 0 -70 30 -70 58 0 14 -2 15 -10 2 -5 -8 -10 -30 -10 -49 0 -47 22
-151 32 -151 4 0 8 -7 8 -16 0 -12 7 -15 28 -11 56 11 117 31 129 43 7 7 31
15 53 19 22 4 46 12 53 19 6 7 42 20 80 30 37 10 67 22 67 26 0 4 20 13 45 19
25 6 45 15 45 20 0 5 9 11 20 14 27 7 27 57 0 80 -15 13 -38 17 -90 17 -39 0
-70 -4 -70 -9z"/>
<path d="M44310 17233 c0 -5 -20 -17 -45 -28 -25 -11 -45 -23 -45 -26 0 -4
-16 -13 -35 -19 -19 -6 -35 -15 -35 -20 0 -5 -20 -16 -45 -26 -25 -9 -45 -20
-45 -23 0 -4 -20 -15 -45 -25 -25 -11 -45 -22 -45 -25 0 -4 -20 -15 -45 -26
-25 -11 -45 -23 -45 -26 0 -3 -20 -14 -45 -25 -25 -10 -45 -21 -45 -25 0 -3
-20 -14 -45 -23 -25 -10 -45 -21 -45 -26 0 -5 -15 -14 -34 -20 -19 -6 -36 -17
-39 -24 -3 -6 -23 -18 -46 -26 -23 -7 -41 -16 -41 -19 0 -3 -19 -15 -43 -26
-23 -11 -44 -22 -47 -26 -3 -3 -23 -14 -45 -25 -22 -10 -46 -24 -53 -31 -7 -7
-19 -13 -26 -13 -7 0 -21 -8 -32 -19 -11 -10 -36 -24 -56 -30 -20 -7 -39 -18
-42 -26 -3 -8 -12 -15 -20 -15 -33 0 -35 -79 -2 -114 29 -32 91 -36 113 -8 12
15 14 -11 10 -190 -3 -186 1 -234 16 -195 4 9 7 9 15 -1 14 -20 22 70 22 253
0 88 4 165 8 172 4 7 24 19 44 27 l37 16 11 -35 c6 -19 15 -35 19 -35 3 0 15
-20 26 -45 11 -25 23 -45 28 -45 4 0 7 -6 7 -13 0 -7 9 -23 20 -35 24 -25 24
-29 6 -48 -8 -7 -17 -32 -21 -54 -4 -22 -10 -40 -14 -40 -5 0 -16 -36 -25 -79
-10 -44 -21 -81 -25 -83 -4 -2 -14 -38 -23 -80 -10 -43 -23 -85 -30 -94 -45
-54 -88 -92 -118 -104 -19 -8 -37 -17 -40 -22 -7 -9 -171 -38 -221 -38 -22 0
-39 -4 -39 -10 0 -5 -13 -10 -29 -10 -35 0 -91 -19 -109 -37 -7 -7 -18 -13
-24 -13 -15 0 -118 -107 -118 -124 0 -8 -7 -21 -15 -30 -38 -37 -60 -277 -34
-371 7 -24 27 -54 54 -80 l43 -40 5 -105 c2 -65 8 -105 16 -108 6 -2 11 -8 11
-14 0 -18 33 -83 47 -91 7 -4 13 -13 13 -19 0 -14 74 -88 88 -88 6 0 15 -6 19
-13 4 -8 27 -22 51 -32 23 -11 42 -23 42 -27 0 -9 27 -21 72 -32 26 -6 26 -5
33 59 4 36 11 65 15 65 4 0 15 52 25 115 9 63 21 115 25 115 4 0 12 32 18 72
6 39 15 74 20 77 5 3 17 48 27 99 10 50 22 92 26 92 3 0 12 27 19 61 7 33 18
66 24 72 7 7 18 32 26 56 8 24 19 49 26 55 6 6 16 28 23 49 7 20 18 40 24 44
12 8 31 35 44 62 8 17 74 81 84 81 3 0 19 11 35 25 16 14 34 30 41 35 11 9 91
40 104 40 4 0 10 -36 13 -80 4 -44 11 -80 14 -80 4 0 16 -38 26 -85 10 -47 22
-85 26 -85 5 0 16 -22 26 -50 10 -27 21 -50 26 -50 4 0 15 -14 24 -32 17 -33
109 -128 124 -128 5 0 15 -6 22 -13 7 -7 24 -18 38 -25 14 -7 17 -10 8 -8 -9
3 -33 8 -52 12 -20 3 -36 10 -36 14 0 4 -25 13 -55 20 -30 7 -55 16 -55 20 0
12 -110 30 -184 30 -80 -1 -149 -14 -154 -29 -2 -6 -8 -11 -14 -11 -15 0 -78
-62 -78 -77 0 -6 -6 -18 -13 -25 -19 -18 -37 -97 -37 -159 0 -53 18 -119 32
-119 4 0 14 -13 23 -30 9 -16 21 -30 28 -30 7 0 22 -8 33 -19 34 -31 62 -43
67 -28 3 6 6 1 6 -12 1 -17 5 -21 17 -17 9 4 13 2 8 -5 -4 -7 -1 -10 7 -7 8 3
20 -1 27 -9 7 -7 22 -13 33 -13 10 0 19 -4 19 -8 0 -5 29 -17 65 -27 36 -11
65 -22 65 -25 0 -3 37 -15 83 -25 45 -10 84 -21 87 -25 7 -8 143 -29 248 -37
45 -3 82 -10 82 -14 0 -5 75 -9 166 -9 188 0 188 0 214 82 8 24 19 46 25 50 6
5 10 58 10 138 -1 104 -4 133 -15 140 -11 7 -14 26 -12 77 1 37 6 69 10 72 13
9 46 314 38 355 -4 20 -10 35 -14 32 -4 -2 -8 8 -9 22 0 15 -6 28 -12 30 -6 2
-11 10 -11 18 0 9 -3 13 -7 11 -5 -3 -9 7 -10 21 0 15 -11 33 -22 41 -12 7
-21 19 -21 27 0 17 -40 45 -53 37 -6 -3 -7 -1 -3 6 10 15 -12 41 -33 40 -9 0
-11 -3 -4 -5 7 -3 9 -12 6 -21 -4 -11 -2 -14 5 -9 14 9 15 -3 17 -214 1 -142
16 -267 34 -280 4 -3 15 -31 25 -62 10 -32 21 -58 24 -58 10 0 35 -60 28 -67
-3 -4 -6 1 -6 10 0 20 -30 37 -64 37 -14 0 -26 5 -26 10 0 6 -12 10 -27 10
-38 0 -217 32 -223 40 -3 4 -39 14 -80 22 l-75 16 63 1 c34 0 62 5 62 10 0 5
14 11 32 15 18 3 46 21 63 39 30 32 30 33 29 136 -1 57 -6 106 -11 110 -9 6
-43 187 -43 229 0 12 -4 22 -10 22 -5 0 -10 23 -10 51 0 43 3 50 16 45 9 -3
26 -6 39 -6 13 0 30 -6 37 -13 16 -16 48 -29 48 -20 0 15 -25 73 -31 73 -3 0
-14 21 -24 46 -16 43 -16 46 1 65 9 10 23 19 31 19 7 0 13 6 13 13 0 6 11 25
25 41 21 24 25 39 25 92 0 42 -5 67 -15 78 -17 16 -21 86 -5 86 6 0 10 42 10
105 0 63 -4 105 -10 105 -5 0 -10 13 -10 28 0 33 -28 122 -39 122 -4 0 -13 17
-20 38 -13 36 -110 142 -131 142 -6 0 -18 17 -28 38 -9 20 -25 46 -34 56 -10
11 -18 26 -18 33 0 7 -4 13 -8 13 -4 0 -14 17 -21 38 -8 20 -22 45 -33 55 -26
25 -20 37 27 55 22 9 42 18 45 21 3 4 23 15 45 26 22 11 45 27 52 35 18 22 16
77 -4 111 -14 24 -24 29 -55 29 -21 0 -38 -3 -38 -7z m200 -1015 c0 -120 -16
-269 -30 -278 -4 -3 -11 -19 -14 -36 -11 -49 -47 -74 -106 -74 -28 0 -50 5
-50 10 0 6 -6 10 -14 10 -16 0 -26 -30 -26 -82 l0 -38 44 0 44 0 7 -100 c4
-55 10 -100 14 -100 4 0 15 -56 25 -125 11 -69 23 -125 28 -125 4 0 8 -16 8
-36 0 -26 -8 -43 -31 -66 -29 -30 -32 -31 -131 -32 -73 -1 -102 2 -105 12 -3
6 -11 12 -20 12 -32 0 -133 73 -133 97 0 6 -6 16 -13 20 -7 4 -21 28 -31 53
-10 25 -22 47 -26 50 -5 3 -16 37 -26 75 -10 39 -21 72 -25 75 -6 5 -29 160
-29 199 0 21 3 23 33 18 19 -3 38 -2 44 1 5 4 18 42 28 85 10 42 22 77 26 77
5 0 9 6 9 14 0 24 34 121 45 128 6 5 6 8 -2 8 -7 0 -25 12 -40 28 -23 22 -28
36 -28 74 0 25 3 49 7 53 4 4 61 9 127 11 130 4 241 18 250 32 3 5 22 15 42
22 21 7 47 26 60 41 33 40 39 24 39 -113z"/>
<path d="M21240 17110 l0 -90 580 0 580 0 0 70 0 70 -97 0 c-54 1 -306 0 -559
0 -456 -1 -462 -1 -467 20 -3 11 -12 20 -21 20 -13 0 -16 -14 -16 -90z"/>
<path d="M45229 16288 c-18 -33 -18 -244 0 -285 11 -28 19 -33 46 -33 28 0 35
5 44 31 6 18 11 40 11 50 0 14 7 19 25 19 14 0 25 5 25 10 0 6 6 10 14 10 16
0 26 21 26 55 0 42 -11 55 -51 61 -35 6 -39 10 -39 36 0 48 -16 68 -55 68 -25
0 -37 -6 -46 -22z m61 -13 c0 -8 5 -15 10 -15 17 0 13 -229 -4 -246 -8 -8 -17
-14 -21 -14 -4 0 -13 6 -21 14 -17 17 -21 246 -4 246 6 0 10 7 10 15 0 8 7 15
15 15 8 0 15 -7 15 -15z"/>
<path d="M45473 16298 c-18 -22 -24 -68 -24 -166 0 -120 13 -162 48 -162 58 0
79 68 70 223 -4 72 -8 93 -23 104 -23 16 -59 17 -71 1z m55 -51 c2 -20 7 -37
13 -37 5 0 9 -31 9 -70 0 -38 -4 -70 -9 -70 -6 0 -11 -15 -13 -32 -2 -25 -8
-34 -25 -36 -19 -3 -23 3 -28 43 -12 74 -1 225 16 236 23 14 34 5 37 -34z"/>
<path d="M44623 16233 c-9 -3 -13 -30 -13 -85 0 -97 9 -107 93 -108 l57 0 0
100 0 100 -62 -1 c-35 0 -69 -3 -75 -6z"/>
<path d="M13461 15694 c-1 -6 -21 -17 -46 -24 -25 -7 -45 -16 -45 -20 0 -4
-26 -15 -57 -26 -32 -10 -63 -24 -70 -30 -6 -6 -32 -17 -57 -24 -25 -7 -46
-16 -46 -20 0 -4 -25 -15 -55 -25 -30 -9 -55 -20 -55 -24 0 -4 -22 -15 -50
-25 -27 -10 -50 -22 -50 -26 0 -5 -14 -11 -30 -15 -17 -4 -36 -12 -43 -18 -6
-7 -24 -18 -39 -24 -16 -7 -28 -19 -28 -28 0 -8 -3 -15 -8 -15 -4 0 -15 -22
-25 -50 -26 -72 -71 -112 -141 -125 -26 -5 -36 -12 -36 -26 0 -11 4 -19 9 -19
5 0 14 -38 21 -85 7 -47 16 -85 21 -85 14 0 10 -60 -5 -75 -11 -12 -98 -14
-497 -15 -367 0 -485 -3 -491 -12 -4 -7 -10 -30 -13 -50 -4 -21 -10 -38 -14
-38 -3 0 -15 -36 -25 -80 -11 -44 -22 -80 -26 -80 -4 0 -14 -36 -24 -80 -9
-44 -21 -80 -25 -80 -4 0 -16 -38 -26 -85 -10 -47 -21 -85 -24 -85 -4 0 -15
-40 -25 -88 -16 -79 -18 -140 -14 -627 1 -297 2 -817 1 -1156 l-3 -617 -92
-17 c-51 -10 -95 -21 -98 -25 -3 -4 -45 -15 -95 -25 -110 -23 -140 -45 -133
-99 l4 -36 -807 -2 c-444 -2 -811 -7 -816 -11 -4 -5 -9 -1163 -11 -2573 l-2
-2564 -1186 0 c-1081 0 -1186 1 -1180 16 3 9 9 27 12 40 3 13 10 24 14 24 4 0
16 23 26 50 10 28 21 50 25 50 3 0 14 21 24 47 10 27 25 54 32 61 7 7 13 20
13 27 0 7 6 20 13 27 6 7 21 40 32 73 11 33 26 66 33 74 17 18 13 188 -4 199
-6 4 -20 43 -30 87 -10 44 -21 82 -24 85 -4 3 -13 28 -20 55 -7 28 -17 52 -20
55 -4 3 -15 38 -25 78 -9 39 -20 72 -24 72 -4 0 -15 34 -25 75 -10 41 -22 75
-27 75 -5 0 -9 9 -9 20 0 25 -32 143 -40 150 -14 11 -30 90 -24 117 6 33 -13
143 -25 143 -4 0 -13 29 -20 65 -7 36 -16 65 -20 65 -4 0 -15 36 -25 80 -9 44
-21 80 -26 80 -4 0 -16 36 -26 80 -9 44 -20 80 -23 80 -4 0 -13 -6 -21 -12
-12 -11 -12 -10 -2 4 13 16 6 72 -7 64 -4 -3 -7 8 -6 22 0 19 -5 26 -15 24
-12 -3 -13 -1 -2 9 17 18 15 34 -2 20 -12 -10 -14 -9 -10 6 3 10 0 32 -7 48
-6 17 -13 38 -14 48 -1 11 -6 22 -12 25 -5 4 -13 19 -17 35 -3 15 -11 27 -17
27 -6 0 -8 -4 -4 -9 3 -5 1 -12 -4 -15 -11 -7 -9 13 2 31 8 13 -1 63 -12 63
-4 0 -13 20 -20 44 -7 25 -17 46 -22 48 -5 2 -13 18 -18 36 -8 28 -7 33 12 43
21 10 21 10 3 -5 -18 -14 -18 -16 -3 -16 18 0 58 19 68 33 4 5 17 14 29 20 13
7 21 16 19 20 -2 5 8 15 24 23 15 8 27 20 27 27 0 9 -3 8 -9 -1 -7 -11 -9 -11
-14 0 -3 9 2 14 14 15 24 2 79 61 79 85 0 10 5 18 10 18 7 0 10 24 8 63 -2 46
-6 61 -17 59 -9 -2 -11 3 -7 14 3 9 2 22 -3 28 -5 6 -10 13 -10 16 -10 44 -14
51 -22 38 -7 -10 -9 -9 -9 5 0 9 -4 17 -10 17 -5 0 -10 -6 -10 -14 0 -20 -17
-29 -26 -15 -4 8 -3 9 4 5 7 -4 12 -3 12 3 0 5 3 17 7 27 5 13 3 15 -7 9 -9
-6 -11 -4 -6 4 9 13 -23 43 -36 35 -5 -3 -8 0 -8 5 0 6 -5 10 -12 9 -7 -2 -12
2 -13 7 -1 31 -69 85 -78 62 -3 -7 -6 -4 -6 6 -1 25 -89 110 -104 101 -7 -4
-9 -4 -5 1 8 8 -21 65 -33 65 -3 0 -14 18 -24 40 -10 22 -21 40 -25 40 -4 0
-13 18 -20 40 -7 22 -17 40 -21 40 -4 0 -12 23 -19 51 -7 28 -18 53 -25 55 -7
3 -16 17 -19 30 -4 15 -11 22 -18 18 -6 -4 -8 -3 -5 3 6 10 -23 53 -55 82 -55
49 -61 53 -85 48 -18 -3 -28 2 -41 22 -9 14 -21 29 -26 32 -8 7 -3 16 34 57
25 28 40 71 40 110 0 54 -19 115 -41 130 -16 11 -19 26 -19 88 0 41 -4 74 -8
74 -17 0 -32 130 -35 291 l-2 167 114 4 c96 4 116 7 127 23 19 26 18 109 -1
125 -12 10 -147 10 -662 1 -357 -6 -663 -14 -682 -16 -43 -5 -60 -29 -60 -85
0 -45 16 -80 38 -80 6 0 11 -13 11 -30 0 -16 -4 -30 -8 -30 -5 0 -17 -53 -27
-117 -10 -65 -21 -120 -25 -123 -4 -3 -11 -24 -14 -46 -7 -39 -6 -42 18 -46
28 -6 36 6 36 53 0 16 4 29 8 29 5 0 17 54 28 120 10 66 22 120 26 120 5 0 8
9 8 19 0 46 9 51 86 51 l73 0 3 -157 c3 -149 -11 -268 -32 -283 -9 -6 -40
-175 -40 -217 0 -17 -4 -33 -9 -35 -5 -1 -13 -67 -17 -144 l-7 -142 42 -7 c22
-4 41 -10 41 -15 0 -4 33 -16 73 -25 39 -10 74 -21 77 -26 7 -10 131 -41 138
-35 3 3 -3 6 -14 6 -16 0 -16 2 -4 10 17 11 22 7 25 -17 2 -27 25 -77 38 -85
16 -10 17 -375 1 -386 -5 -4 -16 -33 -23 -65 -7 -31 -19 -63 -27 -71 -8 -8
-14 -19 -14 -24 0 -13 -57 -61 -86 -72 -14 -6 -41 -10 -60 -10 -42 0 -124 20
-124 30 0 4 -29 15 -65 25 -36 11 -65 22 -65 25 0 3 -22 14 -50 24 -27 10 -50
21 -50 25 0 3 -20 15 -45 26 -25 11 -45 23 -45 28 0 4 -6 7 -13 7 -7 0 -22 8
-33 18 -10 10 -36 26 -56 35 -21 10 -38 22 -38 27 0 5 -8 11 -17 14 -10 3 -34
19 -53 36 -19 17 -43 33 -52 36 -10 3 -18 10 -18 15 0 6 -11 -2 -25 -17 -14
-15 -25 -30 -25 -34 0 -3 -9 -16 -21 -28 -26 -28 -49 -135 -49 -230 0 -94 26
-218 51 -245 10 -11 19 -24 19 -29 0 -5 16 -16 35 -25 19 -9 35 -20 35 -24 0
-4 10 -9 23 -13 19 -4 24 -17 38 -90 9 -47 24 -92 33 -101 9 -9 16 -23 16 -30
0 -8 11 -22 25 -31 14 -9 25 -23 25 -30 0 -8 5 -14 10 -14 6 0 20 -11 32 -25
12 -14 27 -25 34 -25 7 0 17 -6 21 -14 4 -7 30 -21 58 -31 27 -9 52 -20 55
-25 6 -10 165 -40 208 -40 l25 0 -6 -127 c-4 -71 -10 -204 -13 -298 -4 -93
-10 -172 -14 -175 -5 -3 -10 -56 -11 -118 l-4 -114 28 -14 27 -15 0 -114 c0
-70 4 -115 10 -115 6 0 10 -23 10 -50 0 -71 30 -324 39 -330 5 -3 16 -58 26
-122 9 -65 20 -118 24 -118 4 0 16 -45 26 -100 10 -55 22 -100 26 -100 10 0
21 -87 14 -110 -4 -11 -11 -20 -17 -20 -12 0 -88 -71 -88 -83 0 -4 -18 -24
-40 -46 -22 -21 -40 -43 -40 -49 0 -6 -8 -17 -17 -24 -19 -14 -40 -44 -49 -68
-3 -9 -18 -24 -33 -34 -15 -10 -35 -36 -44 -57 -9 -22 -20 -39 -25 -39 -4 0
-13 -13 -20 -29 -7 -16 -24 -42 -37 -57 -14 -16 -25 -34 -25 -41 0 -7 -6 -16
-12 -20 -7 -4 -22 -26 -33 -48 -11 -22 -25 -44 -32 -48 -7 -4 -13 -14 -13 -22
0 -8 -6 -18 -13 -22 -7 -4 -21 -25 -32 -45 -11 -21 -22 -38 -25 -38 -4 0 -14
-18 -24 -40 -10 -22 -21 -40 -25 -40 -4 0 -16 -18 -26 -40 -10 -22 -22 -40
-26 -40 -5 0 -15 -16 -23 -35 -8 -19 -24 -44 -35 -57 -12 -12 -21 -28 -21 -35
0 -7 -5 -13 -10 -13 -6 0 -17 -18 -26 -40 -9 -22 -20 -40 -24 -40 -5 0 -16
-18 -26 -40 -10 -22 -21 -40 -25 -40 -4 0 -14 -19 -24 -42 -9 -23 -22 -47 -30
-52 -7 -6 -18 -28 -25 -48 -6 -21 -15 -38 -18 -38 -4 0 -13 -13 -20 -29 -7
-16 -24 -42 -37 -57 -14 -16 -25 -34 -25 -40 0 -7 -7 -14 -15 -18 -8 -3 -20
-17 -25 -31 -8 -21 -16 -25 -50 -25 -22 0 -40 -4 -40 -9 0 -5 -21 -12 -47 -15
-74 -11 -83 -15 -83 -42 0 -13 4 -24 8 -24 5 0 14 -25 21 -55 7 -30 17 -55 22
-55 5 0 9 -9 9 -20 0 -27 32 -144 41 -150 4 -3 12 -18 18 -33 l11 -27 167 2
c155 3 168 4 171 22 9 45 -30 78 -110 92 -21 3 -38 10 -38 14 0 5 -12 10 -27
12 -27 3 -28 5 -31 68 l-2 65 45 40 c25 22 74 68 110 103 35 34 67 62 71 62 3
0 33 27 66 60 34 33 65 60 69 60 8 0 72 62 93 91 6 8 22 22 36 32 29 19 103
85 199 180 38 37 72 67 76 67 3 0 31 25 62 55 31 30 60 55 64 55 8 0 72 63 93
91 6 8 22 23 36 32 38 25 142 123 359 338 109 108 208 200 221 204 12 4 47 32
76 63 54 55 84 116 84 167 0 14 4 25 8 25 5 0 17 72 27 160 10 88 21 160 25
160 4 0 13 56 20 125 7 69 17 125 20 125 4 0 11 33 15 72 5 57 9 69 17 54 6
-10 18 -26 27 -36 9 -11 25 -31 36 -46 11 -15 30 -37 41 -50 12 -13 24 -27 25
-32 6 -14 61 -83 86 -108 13 -12 23 -25 23 -28 0 -4 17 -24 38 -44 70 -69 70
-69 53 -206 -8 -66 -18 -123 -22 -126 -3 -3 -14 -77 -24 -165 -9 -88 -21 -162
-25 -165 -4 -3 -13 -59 -20 -125 -8 -66 -16 -122 -20 -125 -4 -3 -15 -86 -25
-185 -10 -99 -21 -182 -25 -185 -7 -6 -40 -331 -40 -397 0 -24 -4 -43 -10 -43
-5 0 -10 -12 -10 -27 0 -45 -32 -243 -40 -243 -3 0 -13 -29 -20 -65 -12 -59
-16 -65 -38 -65 -40 0 -62 -35 -62 -99 0 -31 -3 -73 -6 -94 l-7 -37 2734 0
c1683 0 2728 4 2719 10 -16 10 -8 15 40 23 15 3 8 5 -17 6 -28 1 -43 -3 -43
-11 0 -9 -3 -9 -9 1 -7 11 -10 10 -14 -5 -4 -13 -5 -11 -4 6 1 17 8 25 20 24
9 -1 53 -2 97 -3 46 0 80 -5 80 -11 0 -5 -10 -10 -22 -11 -13 0 -3 -6 23 -14
37 -10 529 -14 2332 -20 2314 -7 2357 -7 2357 26 0 6 7 17 15 25 13 13 15 66
15 350 l0 334 797 0 797 0 23 27 23 26 0 1844 0 1843 -1122 0 c-998 0 -1129 2
-1186 16 -35 9 -72 23 -81 31 -41 36 -98 92 -114 113 -21 25 -47 93 -47 121 0
11 -4 19 -10 19 -7 0 -10 360 -10 1060 l0 1060 -906 0 c-960 0 -939 -1 -836
44 23 11 42 23 42 28 0 5 14 14 30 19 17 6 30 15 30 19 0 4 18 15 40 24 22 9
40 20 40 25 0 5 14 14 30 21 17 7 30 18 30 26 0 19 -22 64 -31 64 -5 0 -16 14
-24 31 -28 52 -57 79 -87 79 -18 0 -28 5 -28 15 0 8 -4 15 -9 15 -5 0 -17 29
-26 65 -10 36 -21 65 -26 65 -4 0 -15 35 -25 78 -9 42 -20 79 -24 82 -4 3 -13
42 -20 88 -7 45 -16 82 -19 82 -4 0 -16 44 -26 98 -10 53 -21 99 -25 102 -3 3
-15 51 -25 108 -10 56 -21 102 -25 102 -3 0 -15 42 -25 93 -10 50 -21 94 -24
97 -8 6 -28 88 -37 148 -4 23 -10 42 -13 42 -4 0 -14 29 -21 65 -7 36 -17 65
-21 65 -4 0 -9 15 -12 33 -9 63 -30 152 -37 157 -4 3 -16 43 -25 90 -10 47
-21 87 -25 90 -4 3 -15 43 -25 90 -9 47 -21 87 -24 90 -4 3 -12 22 -18 43 -11
36 -2 92 17 107 3 3 15 34 25 70 10 36 22 67 25 70 4 3 15 35 25 73 10 37 21
67 26 67 4 0 10 15 14 33 14 74 29 127 36 127 4 0 12 30 19 68 7 37 16 69 20
72 5 3 16 55 26 115 10 61 22 113 27 116 5 4 12 85 14 180 3 96 10 182 14 191
11 20 -19 268 -32 268 -4 0 -11 30 -15 68 -6 60 -22 124 -23 96z m-971 -1554
c6 0 10 -47 10 -115 0 -129 13 -208 40 -233 9 -9 23 -34 31 -54 7 -21 17 -38
22 -38 4 0 13 -13 18 -30 6 -16 14 -30 18 -30 3 0 15 -17 26 -37 11 -21 23
-40 26 -43 3 -3 14 -20 23 -37 9 -18 20 -33 24 -33 4 0 15 -18 25 -40 9 -22
20 -40 25 -40 4 0 16 -20 27 -45 11 -25 23 -45 27 -45 4 0 15 -16 24 -35 9
-19 19 -35 23 -35 4 0 13 -16 21 -35 8 -19 17 -35 20 -35 4 0 15 -19 26 -42
10 -24 24 -46 30 -51 7 -4 18 -23 24 -42 6 -19 15 -35 20 -35 4 0 13 -15 20
-32 7 -18 18 -37 24 -43 6 -5 20 -28 31 -50 11 -22 26 -46 32 -53 7 -7 13 -20
13 -27 0 -8 6 -18 13 -22 6 -4 21 -26 32 -48 11 -22 22 -42 25 -45 3 -3 14
-23 25 -45 11 -22 25 -45 32 -52 6 -7 17 -29 24 -48 7 -19 17 -35 22 -35 4 0
15 -16 23 -35 8 -19 18 -35 23 -35 4 0 14 -18 21 -41 8 -23 20 -43 27 -46 7
-3 13 -11 13 -19 0 -8 8 -22 18 -32 9 -9 26 -36 36 -60 10 -23 22 -42 26 -42
3 0 12 -16 19 -35 7 -19 18 -40 24 -47 7 -7 21 -31 32 -53 11 -22 25 -43 31
-47 6 -4 16 -25 24 -48 7 -22 17 -40 22 -40 5 0 14 -13 19 -30 6 -16 15 -30
21 -30 5 0 -22 -32 -61 -71 -65 -65 -76 -71 -131 -81 -51 -10 -62 -16 -72 -40
-7 -15 -16 -28 -20 -28 -14 0 -9 -21 9 -38 16 -16 -42 -17 -902 -20 -505 -1
-920 0 -923 2 -2 3 -8 51 -12 108 -5 58 -13 104 -19 106 -14 5 -15 82 -1 82 6
0 10 12 10 27 0 45 33 213 42 213 4 0 8 11 8 24 0 26 20 88 30 96 4 3 20 57
35 120 16 63 31 117 35 120 3 3 15 42 25 88 11 45 23 82 26 82 4 0 12 29 19
65 7 36 16 65 20 65 4 0 15 41 26 90 10 50 21 90 24 90 4 0 15 38 25 85 11 47
22 85 26 85 3 0 14 41 25 90 10 50 21 90 24 90 4 0 15 39 25 88 10 48 21 89
25 92 4 3 15 44 25 93 10 48 21 87 25 87 4 0 13 33 20 73 7 39 17 75 21 78 5
3 12 36 16 73 5 62 9 71 49 113 24 25 51 57 60 72 10 14 26 32 36 39 10 7 18
18 18 24 0 6 10 21 23 33 12 12 33 36 47 54 14 18 35 45 47 59 13 15 23 30 23
33 0 3 11 18 25 33 14 15 26 32 27 39 1 7 4 -50 5 -125 2 -81 8 -138 13 -138z
m-6545 -3193 c10 -26 21 -47 25 -47 7 0 40 -93 40 -115 0 -7 4 -15 9 -17 5 -1
17 -39 26 -83 17 -83 14 -147 -9 -177 -16 -21 -58 -38 -97 -38 -22 0 -29 -5
-29 -20 0 -11 4 -20 9 -20 6 0 11 -19 13 -42 l3 -43 47 2 46 1 18 -71 c9 -40
20 -74 24 -77 3 -3 12 -26 20 -52 7 -27 16 -48 19 -48 4 0 13 -20 20 -46 7
-25 19 -50 25 -57 6 -7 19 -38 29 -70 23 -75 16 -115 -24 -129 -16 -5 -29 -14
-29 -18 0 -5 -33 -14 -72 -20 -82 -14 -177 -3 -204 24 -8 9 -21 16 -27 16 -15
0 -127 113 -127 128 0 6 -6 15 -13 19 -7 4 -21 26 -32 48 -11 22 -25 45 -31
52 -6 6 -18 32 -25 57 -7 26 -16 46 -20 46 -4 0 -12 23 -19 50 -7 28 -16 50
-21 50 -5 0 -9 6 -9 14 0 9 18 16 55 21 45 5 55 10 55 26 0 10 -4 19 -10 19
-6 0 -10 39 -10 98 0 129 -3 135 -54 151 -90 26 -87 131 4 146 21 4 41 12 43
19 3 7 23 18 45 25 23 8 43 20 46 27 3 8 12 14 20 14 7 0 42 27 77 60 35 33
67 60 70 60 4 0 12 20 18 45 14 54 27 48 56 -28z m7489 -1779 c6 -8 28 -22 49
-31 20 -10 37 -22 37 -27 0 -5 16 -17 35 -26 19 -9 35 -19 35 -23 0 -3 16 -15
35 -25 19 -11 35 -22 35 -26 0 -4 12 -12 28 -19 15 -7 34 -19 42 -26 54 -50
86 -72 112 -81 9 -3 19 -12 22 -20 3 -8 11 -14 18 -14 7 0 29 -14 48 -30 19
-16 40 -30 47 -30 7 0 16 -6 20 -13 4 -7 21 -21 38 -31 32 -21 46 -32 74 -57
10 -9 33 -25 52 -35 19 -11 40 -27 47 -36 7 -10 19 -18 25 -18 24 0 67 -61 67
-94 0 -36 -20 -86 -35 -86 -5 0 -26 -14 -45 -30 -19 -16 -41 -30 -48 -30 -7 0
-15 -7 -18 -15 -4 -8 -23 -23 -43 -32 -20 -9 -42 -25 -49 -35 -7 -10 -18 -18
-24 -18 -6 0 -18 -7 -27 -15 -45 -41 -60 -52 -94 -70 -20 -11 -37 -22 -37 -25
0 -3 -15 -14 -32 -25 -18 -10 -37 -24 -41 -32 -4 -7 -14 -13 -22 -13 -8 0 -20
-8 -27 -18 -7 -10 -30 -26 -50 -35 -21 -10 -38 -22 -38 -28 0 -5 -11 -14 -25
-19 -14 -5 -25 -13 -25 -17 0 -5 -18 -17 -40 -27 -22 -11 -40 -23 -40 -27 0
-5 -14 -16 -31 -24 -16 -9 -39 -25 -49 -35 -11 -11 -31 -22 -45 -26 -14 -3
-25 -10 -25 -15 0 -5 -11 -9 -25 -9 -14 0 -25 4 -25 9 0 5 -9 13 -20 16 -20 6
-20 15 -20 672 0 622 1 667 18 680 21 17 101 11 116 -9z m-4064 -3312 c0 -345
2 -397 16 -410 14 -15 337 -16 3410 -16 l3394 0 0 -236 c0 -189 -3 -238 -14
-250 -8 -7 -16 -19 -18 -26 -4 -10 -439 -14 -2196 -18 -1204 -3 -2194 -8
-2198 -12 -4 -5 4 -8 17 -9 13 0 18 -3 11 -6 -6 -2 -10 -9 -6 -14 3 -5 -2 -9
-10 -9 -9 0 -16 -8 -16 -19 0 -12 -9 -21 -25 -25 -16 -4 -22 -11 -19 -21 4
-11 -1 -15 -17 -16 -23 0 -23 -1 -4 -10 17 -8 17 -9 -5 -4 -14 2 -59 6 -100 7
l-75 2 61 3 c51 3 63 7 67 23 3 11 12 20 21 20 9 0 16 8 16 19 0 12 8 21 23
24 12 2 -4 2 -36 0 -45 -4 -58 -1 -63 11 -3 9 -14 16 -23 16 -13 0 -13 -2 -2
-9 11 -7 9 -10 -8 -16 -11 -3 -24 -17 -27 -31 -6 -22 -16 -29 -37 -25 -5 1 -5
-8 -2 -20 5 -13 3 -19 -3 -15 -5 3 -15 -1 -22 -9 -10 -12 -16 -13 -26 -4 -17
14 -18 33 -1 23 8 -5 7 -2 -2 10 -16 19 -8 31 24 39 18 4 18 5 -2 6 -13 0 -23
6 -23 12 0 5 5 7 10 4 6 -3 10 -2 10 4 0 5 14 12 30 16 17 4 27 11 24 17 -4 6
13 9 45 7 28 -2 54 0 58 4 3 4 -1116 6 -2488 5 l-2494 -3 -27 -28 c-16 -15
-28 -32 -28 -37 0 -6 -13 -10 -30 -10 -16 0 -30 4 -30 8 0 5 -43 16 -95 26
-52 10 -95 22 -95 27 0 5 -10 9 -22 9 -14 0 -18 3 -12 8 6 4 20 31 30 60 10
28 22 52 25 52 4 0 13 20 20 45 7 25 16 45 20 45 3 0 14 26 25 58 10 31 24 62
30 69 6 6 17 32 24 57 7 25 16 46 21 46 4 0 15 25 24 55 8 30 19 55 23 55 5 0
16 27 26 60 10 33 22 60 26 60 4 0 13 20 20 45 7 25 16 45 20 45 5 0 16 25 25
55 10 30 21 55 24 55 4 0 13 20 20 46 7 25 21 52 30 61 13 14 17 47 19 200 l4
183 1304 0 1304 0 0 -394z"/>
<path d="M11697 15537 c-30 -37 -37 -51 -37 -79 0 -16 -4 -28 -10 -28 -5 0
-10 -9 -10 -20 0 -11 5 -20 10 -20 6 0 10 -11 10 -25 0 -61 64 -147 129 -174
43 -19 130 -9 147 15 7 11 19 26 26 34 21 24 17 162 -4 184 -10 10 -18 23 -18
29 0 17 -61 73 -87 81 -13 4 -23 12 -23 17 0 5 -26 9 -57 9 -47 -1 -61 -5 -76
-23z"/>
<path d="M38154 14928 c4 -169 11 -294 17 -296 5 -2 9 -31 9 -65 0 -97 32
-571 40 -577 5 -4 30 -272 30 -327 0 -20 -5 -23 -40 -23 -38 0 -56 -9 -102
-52 -17 -17 -18 -41 -18 -378 0 -242 4 -367 11 -383 6 -14 22 -30 36 -36 36
-17 4269 -16 4305 1 14 7 31 26 37 43 14 39 15 702 2 738 -6 16 -24 30 -45 38
-20 7 -36 17 -36 21 0 4 -19 8 -41 8 l-42 0 6 38 c3 20 11 111 18 202 7 91 15
167 19 170 8 6 27 282 37 525 3 88 9 162 13 165 4 3 11 112 15 243 l7 237
-2143 0 -2142 0 7 -292z"/>
<path d="M45026 14916 c-4 -36 -12 -66 -17 -66 -5 0 -9 -8 -9 -18 0 -26 -30
-135 -38 -142 -12 -8 -42 -76 -42 -94 0 -9 -4 -16 -10 -16 -5 0 -10 -11 -10
-25 0 -47 -58 -135 -89 -135 -6 0 -11 -7 -11 -15 0 -10 11 -15 35 -15 19 0 35
4 35 8 0 5 18 14 40 21 22 6 40 16 40 21 0 5 8 11 18 14 9 3 33 19 52 36 19
16 38 30 43 30 4 0 7 6 7 14 0 8 10 23 23 33 13 10 30 33 38 51 7 17 17 32 21
32 10 0 28 69 28 107 0 22 -7 37 -20 45 -11 7 -20 17 -20 23 0 5 -14 26 -30
45 -16 19 -30 40 -30 47 0 7 -6 16 -13 20 -8 4 -18 17 -24 27 -8 15 -12 6 -17
-48z"/>
<path d="M45560 14583 c0 -6 -8 -20 -17 -29 -17 -17 -17 -18 0 -11 11 4 16 3
12 -3 -3 -6 -13 -10 -21 -10 -14 0 -17 -8 -17 -43 0 -10 -2 -16 -4 -13 -8 8
-43 -34 -46 -55 -2 -12 -13 -31 -23 -43 -11 -12 -26 -37 -34 -56 -8 -19 -20
-39 -27 -43 -7 -4 -13 -14 -13 -22 0 -7 -6 -20 -13 -27 -7 -7 -21 -31 -31 -53
-11 -22 -22 -42 -25 -45 -3 -3 -15 -23 -26 -45 -11 -22 -26 -46 -32 -53 -7 -7
-13 -18 -13 -23 0 -5 -112 -9 -275 -9 -177 0 -275 4 -275 10 0 6 -28 10 -65
10 -36 0 -65 -4 -65 -9 0 -5 -9 -11 -21 -14 -17 -5 -20 -12 -17 -49 l3 -43
152 -5 c83 -3 155 -8 159 -12 4 -5 3 -8 -2 -8 -6 0 -15 -15 -22 -34 -7 -18
-22 -45 -35 -59 -12 -15 -35 -42 -51 -62 -16 -19 -35 -35 -42 -35 -7 0 -18 -9
-24 -20 -6 -11 -17 -20 -25 -20 -8 0 -18 -6 -22 -13 -4 -8 -29 -22 -55 -32
-27 -10 -48 -21 -48 -24 0 -7 -59 -26 -112 -36 -21 -4 -38 -10 -38 -14 0 -19
-217 -36 -445 -36 -236 0 -495 19 -495 36 0 5 -8 9 -18 9 -26 0 -135 30 -142
38 -3 4 -25 14 -49 22 -24 8 -45 20 -48 27 -11 28 -33 13 -33 -22 0 -19 5 -35
10 -35 6 0 10 -14 10 -31 0 -37 30 -172 40 -179 4 -3 15 -26 25 -52 10 -27 22
-48 26 -48 5 0 9 -6 9 -13 0 -7 16 -30 35 -52 19 -22 35 -43 35 -46 0 -11 57
-69 67 -69 5 0 19 -11 30 -24 11 -13 34 -29 52 -37 17 -8 31 -17 31 -21 0 -4
17 -15 38 -25 20 -9 43 -23 50 -30 7 -7 20 -13 27 -13 7 0 20 -6 27 -13 7 -7
40 -21 73 -32 33 -11 62 -23 65 -26 7 -8 123 -39 147 -39 12 0 23 -4 25 -10 4
-12 245 -40 346 -40 41 0 72 -4 72 -10 0 -6 73 -10 200 -10 l200 0 0 -24 c0
-13 4 -26 9 -28 4 -1 17 -70 27 -153 10 -82 21 -152 25 -155 3 -3 12 -56 19
-117 8 -62 16 -113 20 -113 3 0 15 -67 25 -150 10 -82 21 -150 25 -150 4 0 15
-63 25 -140 9 -77 21 -140 26 -140 5 0 9 -12 9 -26 0 -40 32 -218 40 -224 19
-13 44 -407 27 -428 -9 -11 -13 -221 -4 -228 7 -6 307 21 307 28 0 4 24 8 53
8 83 1 200 19 209 32 16 26 9 67 -14 79 -13 7 -25 15 -28 19 -3 4 -71 15 -152
25 -82 10 -148 22 -148 27 0 4 -17 8 -37 8 l-38 0 3 60 c2 33 8 60 13 60 5 0
9 17 9 38 0 69 33 437 40 442 3 3 15 111 25 240 10 129 21 237 25 240 4 3 15
110 25 238 10 127 21 232 25 232 4 0 13 65 20 145 9 105 16 145 25 145 8 0 16
-18 20 -40 4 -22 12 -46 19 -53 7 -6 21 -45 31 -84 10 -40 22 -73 26 -73 3 0
15 -31 25 -70 10 -38 21 -70 25 -70 4 0 15 -30 25 -67 10 -38 23 -73 29 -79 6
-7 17 -38 24 -70 7 -32 19 -63 26 -70 7 -7 16 -30 20 -50 3 -20 12 -42 19 -49
7 -7 18 -38 25 -69 7 -31 16 -56 21 -56 4 0 16 -29 25 -65 10 -36 21 -65 25
-65 4 0 15 -27 25 -60 10 -33 21 -60 25 -60 4 0 15 -34 25 -75 11 -41 22 -75
25 -75 4 0 13 -33 20 -72 7 -40 16 -75 20 -78 4 -3 10 -22 13 -42 4 -29 2 -40
-11 -47 -13 -7 -17 -22 -15 -57 1 -26 6 -50 11 -53 5 -3 15 -32 22 -63 12 -50
16 -58 37 -58 12 0 23 4 23 8 0 7 104 42 124 42 4 0 13 6 21 13 7 7 38 19 69
26 31 7 56 16 56 20 0 5 28 16 63 26 34 9 64 20 67 24 3 4 23 14 45 22 36 13
40 19 43 52 5 59 -14 63 -229 46 -100 -8 -184 -12 -188 -9 -4 3 -16 147 -26
320 -10 173 -21 317 -24 320 -7 5 -42 551 -41 633 0 20 -4 37 -8 37 -9 0 -27
330 -38 703 -3 108 -10 197 -15 197 -5 0 -9 20 -9 45 0 112 -101 215 -211 215
-16 0 -29 4 -29 9 0 5 -53 17 -117 27 -65 10 -120 21 -123 24 -3 4 -57 15
-120 25 -63 11 -117 22 -120 26 -3 4 -61 15 -130 24 -69 10 -127 21 -130 26
-3 4 -19 9 -35 12 -17 2 61 5 172 6 111 0 213 5 226 10 17 7 28 21 32 41 4 17
13 34 20 37 8 2 19 20 25 39 6 19 15 34 20 34 5 0 16 20 25 44 10 25 23 47 30
50 7 2 16 19 20 36 4 17 15 39 24 48 10 9 24 33 31 52 7 19 20 40 28 47 8 7
12 19 8 28 -3 9 -2 14 3 10 5 -3 12 8 16 25 4 17 10 28 15 25 8 -5 26 33 22
48 -1 4 3 7 10 7 6 0 8 3 5 7 -4 3 0 14 9 24 10 11 12 19 5 24 -6 3 -11 1 -11
-4 0 -6 -8 -11 -17 -10 -11 0 -13 3 -5 6 6 2 12 14 11 26 0 21 -1 21 -9 2 -8
-19 -9 -19 -9 -1 -1 20 -1 20 -16 0 -14 -19 -14 -19 -11 2 3 11 0 27 -5 35 -5
9 -9 10 -9 2z"/>
<path d="M21242 9593 c2 -87 6 -118 16 -117 6 1 85 2 175 3 109 1 157 4 147
11 -10 6 129 10 403 10 l417 0 0 105 0 105 -580 0 -581 0 3 -117z"/>
<path d="M19293 6765 c-6 -6 -19 -27 -28 -46 -10 -19 -21 -36 -24 -39 -3 -3
-15 -21 -25 -40 -11 -19 -26 -41 -33 -48 -7 -7 -13 -19 -13 -26 0 -7 -9 -21
-19 -33 -11 -11 -29 -39 -40 -62 -12 -22 -26 -41 -31 -41 -6 0 -18 -18 -27
-40 -10 -22 -21 -40 -25 -40 -5 0 -8 -25 -8 -55 0 -30 4 -55 8 -55 4 0 16 -22
26 -50 10 -27 21 -50 25 -50 4 0 13 -17 20 -37 8 -21 19 -42 25 -49 7 -6 18
-31 26 -55 8 -24 17 -46 20 -49 4 -3 15 -26 25 -52 10 -27 21 -48 24 -48 4 0
15 -22 25 -50 10 -27 21 -50 25 -50 4 0 15 -22 25 -50 10 -27 21 -50 25 -50 4
0 13 -18 20 -40 6 -22 15 -40 20 -40 7 0 14 -20 43 -117 5 -18 13 -33 17 -33
4 0 15 -22 25 -50 10 -27 22 -50 26 -50 4 0 11 -16 14 -35 4 -19 13 -40 20
-47 7 -7 21 -34 31 -61 10 -26 21 -47 24 -47 4 0 15 -22 25 -50 10 -27 21 -50
25 -50 4 0 15 -22 25 -50 10 -27 21 -50 25 -50 4 0 15 -25 26 -55 10 -30 22
-55 26 -55 4 0 15 -22 25 -50 10 -27 21 -50 25 -50 4 0 13 -16 19 -35 6 -19
15 -35 19 -35 4 0 15 -27 25 -60 10 -33 22 -60 26 -60 4 0 16 -22 26 -50 10
-27 21 -50 25 -50 4 0 15 -22 25 -50 10 -27 21 -50 25 -50 4 0 15 -22 25 -50
10 -28 21 -50 24 -50 4 0 13 -18 20 -40 7 -22 17 -40 21 -40 4 0 15 -22 25
-50 10 -27 21 -50 25 -50 4 0 15 -22 25 -50 10 -27 21 -50 25 -50 4 0 15 -25
24 -55 8 -30 19 -55 23 -55 5 0 16 -22 26 -50 10 -27 21 -50 25 -50 4 0 15
-22 25 -50 10 -27 21 -50 25 -50 4 0 14 -18 21 -40 7 -22 17 -40 21 -40 4 0
15 -23 24 -50 9 -27 20 -50 24 -50 4 0 15 -22 25 -50 10 -27 21 -50 25 -50 4
0 15 -23 25 -50 10 -28 21 -50 25 -50 3 0 14 -27 25 -60 10 -33 22 -60 26 -60
5 0 14 -16 20 -35 6 -19 15 -35 19 -35 4 0 15 -23 25 -50 10 -28 21 -50 25
-50 4 0 15 -23 25 -50 10 -28 21 -50 25 -50 4 0 16 -25 26 -55 11 -30 22 -55
26 -55 4 0 15 -23 25 -50 10 -28 21 -50 25 -50 3 0 14 -21 24 -47 10 -27 21
-50 25 -53 3 -3 12 -24 20 -47 7 -24 17 -43 21 -43 4 0 15 -23 25 -50 10 -28
21 -50 25 -50 4 0 15 -23 25 -50 10 -28 21 -50 25 -50 4 0 15 -23 25 -50 10
-28 21 -50 25 -50 4 0 15 -23 25 -50 10 -28 21 -50 24 -50 4 0 13 -18 20 -40
7 -22 17 -40 21 -40 4 0 15 -23 25 -50 10 -28 21 -50 25 -50 4 0 15 -25 24
-55 8 -30 19 -55 23 -55 5 0 16 -23 26 -50 10 -28 21 -50 25 -50 4 0 15 -22
25 -50 10 -27 21 -50 25 -50 4 0 15 -22 25 -50 10 -27 22 -50 26 -50 4 0 10
-10 14 -22 14 -56 133 -168 178 -168 5 0 16 -7 24 -15 14 -13 660 -15 5773
-13 5468 3 5758 4 5775 20 10 10 23 18 31 18 16 0 125 103 125 118 0 6 6 17
13 24 32 33 41 76 45 216 l4 143 -5803 -7 -5804 -7 -19 51 c-10 29 -21 52 -25
52 -4 0 -15 23 -25 50 -10 28 -22 50 -26 50 -4 0 -13 20 -19 45 -6 25 -15 45
-19 45 -5 0 -16 23 -26 50 -10 28 -21 50 -25 50 -4 0 -15 23 -25 50 -10 28
-21 50 -25 50 -4 0 -15 25 -26 55 -10 30 -22 55 -26 55 -4 0 -15 23 -25 50
-10 28 -21 50 -25 50 -4 0 -13 16 -19 35 -6 19 -15 35 -19 35 -4 0 -15 23 -25
50 -10 28 -21 50 -25 50 -4 0 -15 23 -25 50 -10 28 -21 50 -25 50 -4 0 -15 25
-26 55 -10 30 -21 55 -25 55 -3 0 -14 25 -25 55 -10 30 -22 55 -26 55 -4 0
-15 23 -24 50 -9 28 -20 50 -24 50 -4 0 -14 18 -21 40 -7 22 -17 40 -21 40 -4
0 -15 22 -25 50 -10 27 -21 50 -25 50 -4 0 -15 22 -25 50 -10 27 -21 50 -25
50 -4 0 -15 23 -25 50 -10 27 -21 50 -25 50 -4 0 -15 23 -24 50 -9 27 -20 50
-24 50 -4 0 -14 18 -21 40 -7 22 -16 40 -20 40 -4 0 -15 21 -25 48 -10 26 -21
49 -25 52 -3 3 -12 25 -20 49 -8 24 -19 49 -25 55 -6 6 -20 32 -30 59 -10 26
-21 47 -24 47 -4 0 -15 23 -25 50 -10 27 -21 50 -25 50 -4 0 -15 23 -25 50
-10 28 -21 50 -25 50 -4 0 -14 18 -21 40 -7 22 -16 40 -20 40 -3 0 -14 23 -24
50 -10 28 -21 50 -25 50 -4 0 -15 23 -25 50 -10 28 -21 50 -25 50 -4 0 -15 23
-25 50 -10 28 -22 50 -26 50 -4 0 -16 27 -26 60 -10 33 -21 60 -25 60 -4 0
-13 16 -19 35 -6 19 -15 35 -19 35 -4 0 -15 23 -25 50 -10 28 -21 50 -25 50
-4 0 -16 25 -26 55 -11 30 -22 55 -26 55 -4 0 -15 23 -25 50 -10 28 -21 50
-25 50 -4 0 -15 23 -25 50 -10 28 -21 50 -25 50 -4 0 -15 23 -25 50 -10 28
-21 50 -25 50 -4 0 -13 16 -19 35 -6 19 -15 35 -19 35 -4 0 -16 25 -26 55 -11
30 -22 55 -27 55 -4 0 -15 25 -24 55 -10 30 -21 55 -24 55 -4 0 -15 21 -25 48
-10 26 -21 49 -25 52 -4 3 -15 26 -25 53 -10 26 -21 47 -25 47 -4 0 -13 18
-20 40 -7 22 -17 40 -21 40 -4 0 -15 23 -25 50 -10 28 -21 50 -25 50 -4 0 -15
23 -25 50 -10 28 -21 50 -25 50 -3 0 -14 21 -24 48 -10 26 -21 49 -25 52 -4 3
-15 26 -25 53 -10 26 -21 47 -24 47 -4 0 -15 23 -25 50 -10 28 -21 50 -25 50
-4 0 -12 20 -19 45 -7 25 -16 45 -21 45 -4 0 -14 20 -21 45 -7 25 -16 45 -20
45 -4 0 -15 21 -25 47 -10 27 -25 54 -32 61 -7 7 -13 20 -13 27 0 7 -7 21 -16
29 -8 9 -21 42 -27 75 -9 44 -15 55 -24 46z m2835 -5137 c8 -8 15 -8 26 1 16
14 207 11 256 -3 19 -6 22 -5 10 3 -21 15 214 15 243 0 16 -9 22 -9 25 0 5 14
232 16 232 1 0 -6 9 -6 26 0 32 12 211 13 218 1 6 -10 55 -9 71 1 16 10 485 7
485 -3 0 -5 11 -4 26 1 37 14 207 13 222 -2 17 -17 15 -113 -1 -127 -10 -7
-171 -11 -543 -11 l-529 -1 3 -39 4 -40 -101 0 -101 0 0 40 c0 39 -1 40 -35
40 -34 0 -35 -1 -35 -40 l0 -40 -100 0 -100 0 0 40 0 40 -40 0 -40 0 0 -40 0
-40 -90 0 -90 0 0 40 0 40 -40 0 -40 0 0 -40 0 -40 -75 0 c-41 0 -75 4 -75 9
0 5 -9 11 -21 14 -11 3 -23 15 -26 26 -3 12 -9 21 -14 21 -5 0 -9 25 -9 55 0
30 5 55 10 55 6 0 10 6 10 13 0 30 25 37 125 37 63 0 105 -4 113 -12z m3016
-74 c9 -3 16 -14 16 -24 0 -10 -7 -21 -16 -24 -9 -3 -123 -6 -255 -6 -204 0
-240 2 -245 15 -4 8 -4 22 0 30 5 13 41 15 245 15 132 0 246 -3 255 -6z m844
-26 l3 -28 -254 0 c-246 0 -255 1 -260 20 -3 12 1 24 11 30 10 6 114 9 257 7
l240 -2 3 -27z"/>
<path d="M37614 4553 c5 -12 4 -13 -7 -5 -18 15 -57 -12 -57 -40 0 -14 -5 -18
-15 -14 -14 5 -15 -27 -15 -273 1 -239 3 -280 16 -285 9 -3 12 -11 8 -17 -4
-8 -3 -9 4 -5 7 4 12 1 12 -8 0 -10 14 -17 43 -21 23 -3 577 -5 1230 -3 l1189
3 24 30 c23 29 23 30 23 302 0 168 -3 275 -9 278 -6 4 -7 11 -4 17 4 6 3 9 -2
6 -5 -3 -18 4 -29 15 -11 11 -13 16 -5 12 10 -5 12 -5 5 2 -16 16 -81 23 -95
10 -10 -9 -11 -9 -6 1 6 10 -224 12 -1154 12 -1069 0 -1162 -2 -1156 -17z"/>
<path d="M40608 4558 c-62 -16 -68 -45 -68 -344 0 -265 2 -283 44 -316 19 -16
79 -18 829 -18 792 0 847 2 847 31 0 6 7 17 15 25 13 13 15 59 15 288 l0 273
-25 27 c-14 15 -40 32 -58 37 -44 12 -1551 10 -1599 -3z"/>
<path d="M4690 3170 c0 -460 4 -720 10 -720 5 0 30 20 54 45 25 25 48 45 52
45 3 0 73 66 155 148 83 81 184 179 226 219 l76 72 64 -64 c36 -36 68 -65 73
-65 4 0 22 -16 41 -35 68 -72 159 -161 221 -218 35 -32 84 -78 109 -103 25
-24 51 -44 57 -44 9 0 12 172 12 720 l0 720 -575 0 -575 0 0 -720z"/>
<path d="M13100 3020 c-564 -3 -1016 -6 -1006 -8 18 -2 18 -3 3 -20 -10 -10
-17 -28 -17 -40 0 -13 -6 -22 -15 -22 -8 0 -15 -5 -15 -10 0 -6 -8 -28 -19
-50 l-18 -38 30 -6 c54 -11 3534 -7 3562 4 15 6 29 19 32 30 3 11 9 20 14 20
15 0 10 80 -6 96 -8 8 -19 23 -24 32 -9 16 -64 17 -753 17 -409 0 -1204 -2
-1768 -5z"/>
<path d="M11352 1445 c-7 -8 -12 -17 -12 -20 0 -3 -6 -20 -13 -38 -17 -39 -31
-89 -29 -99 1 -5 1 -9 0 -10 -2 -1 -93 -5 -203 -8 -110 -3 864 -6 2164 -5
1900 0 2365 2 2369 13 2 7 10 19 18 26 24 24 18 93 -11 124 l-25 27 -2123 2
c-1841 2 -2124 0 -2135 -12z"/>
</g>
</svg>
